<?xml version="1.0" encoding="utf-8"?>
<!-- Generator: Adobe Illustrator 23.0.3, SVG Export Plug-In . SVG Version: 6.00 Build 0)  -->
<svg version="1.1" xmlns="http://www.w3.org/2000/svg" xmlns:xlink="http://www.w3.org/1999/xlink" x="0px" y="0px"
	 viewBox="0 0 1023.5 837.8" style="enable-background:new 0 0 1023.5 837.8;" xml:space="preserve">
<style type="text/css">
	.st0{opacity:0.1;fill:#00C7FA;enable-background:new    ;}
	.st1{opacity:0.7;}
	.st2{fill:#F6F7F9;}
	.st3{opacity:0.2;fill:#00C7FA;enable-background:new    ;}
	.st4{fill:url(#SVGID_1_);}
	.st5{fill:#00C7FA;}
	.st6{fill:url(#SVGID_2_);}
	.st7{opacity:0.5;fill:#00C7FA;enable-background:new    ;}
	.st8{opacity:0.1;fill:url(#SVGID_3_);enable-background:new    ;}
	.st9{fill:url(#SVGID_4_);}
	.st10{fill:#EFB7B9;}
	.st11{fill:#444053;}
	.st12{fill:#B07473;}
	.st13{opacity:0.1;enable-background:new    ;}
	.st14{fill:#E1E7EF;}
	.st15{fill:#67647E;}
	.st16{fill:#585268;}
	.st17{opacity:3.000000e-02;enable-background:new    ;}
	.st18{fill:url(#SVGID_5_);}
	.st19{fill:#A27772;}
	.st20{fill:#CC818C;}
	.st21{opacity:0.1;}
	.st22{fill:#F6F8FB;}
</style>
<g id="Layer_1">
	<ellipse class="st0" cx="176" cy="807.8" rx="176" ry="30"/>
	<ellipse class="st0" cx="847.5" cy="800.8" rx="176" ry="30"/>
	<path class="st0" d="M274.4,0.5c-46,2.5-92.5,15.9-128.4,44.8c-31.5,25.4-54.2,65.2-48.7,105.3c6.5,47.3,48.7,81.7,64.4,126.8
		c10.1,29,8.5,61,1.9,91c-4.2,19.3-10.8,38.7-23.3,54c-22.6,27.6-63.3,40.9-74.4,74.7c-12.1,36.8,18.3,72.9,46.9,99.1
		c22.8,20.9,46.7,41.7,75.4,53.1c21,8.4,43.8,11.4,66.4,12.6c62.4,3.3,124.7-6.7,183-29.2c27.9-10.8,54.9-24.6,84.1-31.1
		c62.3-13.9,126.3,6.2,189.4,15.5c54.1,8,109,8.2,163.2,0.5c34.1-4.9,69.3-13.6,94.9-36.5c26-23.3,39-59.3,37.6-94.2
		s-16.2-68.5-37.8-95.9c-28-35.4-66.6-60.6-100.2-90.7c-34.2-30.7-63.3-66.7-86.2-106.6c-13.2-23-24.4-47.4-41.5-67.7
		c-26.7-31.6-65.3-50.3-104-64.8c-89.2-33.4-181.6-40.2-274.6-55C333.3,1.5,303.8-1.1,274.4,0.5L274.4,0.5z"/>
	<g class="st1">
		<path class="st2" d="M258.5,367.1h191v106.7h-191V367.1z"/>
		<circle class="st3" cx="294.5" cy="414.5" r="19.9"/>
		<path class="st3" d="M338.6,390.9h86.6v5.5h-86.6V390.9z M338.6,404.8h44.1v5.5h-44.1V404.8z M338.6,418.7H410v5.5h-71.4V418.7z
			 M338.6,432.6h86.6v5.5h-86.6V432.6z M401.3,452.6h24v10.5h-24V452.6z"/>
		<path class="st2" d="M419.3,72.2h191v106.7h-191V72.2z"/>
		<circle class="st3" cx="455.3" cy="119.6" r="19.9"/>
		<path class="st3" d="M499.4,96H586v5.4h-86.6V96z M499.4,109.9h44.1v5.4h-44.1V109.9z M499.4,123.8h71.4v5.5h-71.4V123.8z
			 M499.4,137.7H586v5.4h-86.6V137.7z M562,157.7h24v10.5h-24V157.7z"/>
		<path class="st2" d="M482.9,251.4h191v106.7h-191V251.4z"/>
		<circle class="st3" cx="518.8" cy="298.7" r="19.9"/>
		<path class="st3" d="M563,275.2h86.6v5.5H563V275.2z M563,289.1h44.1v5.5H563V289.1z M563,303h71.4v5.5H563V303z M563,316.9h86.6
			v5.5H563V316.9z M625.6,336.9h24v10.5h-24V336.9z"/>
	</g>
	
		<linearGradient id="SVGID_1_" gradientUnits="userSpaceOnUse" x1="352.435" y1="522.85" x2="352.435" y2="704.29" gradientTransform="matrix(1 0 0 -1 0 840)">
		<stop  offset="0" style="stop-color:#808080;stop-opacity:0.25"/>
		<stop  offset="0.54" style="stop-color:#808080;stop-opacity:0.12"/>
		<stop  offset="1" style="stop-color:#808080;stop-opacity:0.1"/>
	</linearGradient>
	<path class="st4" d="M191.9,135.7H513v181.4H191.9V135.7z"/>
	<path class="st2" d="M194.1,138h316.6v176.9H194.1V138z"/>
	<circle class="st3" cx="253.8" cy="216.5" r="33"/>
	<path class="st3" d="M326.9,177.4h143.6v9H326.9V177.4z M326.9,200.5h73.2v9h-73.2V200.5z M326.9,223.5h118.3v9H326.9V223.5z
		 M326.9,246.5h143.6v9H326.9V246.5z"/>
	<path class="st5" d="M430.8,279.8h39.7v17.5h-39.7V279.8z"/>
	
		<linearGradient id="SVGID_2_" gradientUnits="userSpaceOnUse" x1="569.83" y1="288.51" x2="569.83" y2="459.18" gradientTransform="matrix(1 0 0 -1 0 840)">
		<stop  offset="0" style="stop-color:#808080;stop-opacity:0.25"/>
		<stop  offset="0.54" style="stop-color:#808080;stop-opacity:0.12"/>
		<stop  offset="1" style="stop-color:#808080;stop-opacity:0.1"/>
	</linearGradient>
	<path class="st6" d="M417.1,380.8h305.4v170.7H417.1V380.8z"/>
	<path class="st2" d="M419.2,382h301.2v168.3H419.2L419.2,382z"/>
	<circle class="st3" cx="475.9" cy="456.7" r="31.4"/>
	<path class="st3" d="M545.5,419.5h136.6v8.6H545.5V419.5z M545.5,441.5h69.6v8.6h-69.6V441.5z M545.5,463.4h112.6v8.6H545.5V463.4z
		 M545.5,485.3h136.6v8.6H545.5V485.3z"/>
	<path class="st7" d="M644.4,516.9h37.8v16.6h-37.8V516.9z"/>
	
		<linearGradient id="SVGID_3_" gradientUnits="userSpaceOnUse" x1="171.5" y1="520.8" x2="171.5" y2="520.98" gradientTransform="matrix(1 0 0 -1 -88.27 808.92)">
		<stop  offset="0" style="stop-color:#808080;stop-opacity:0.25"/>
		<stop  offset="0.54" style="stop-color:#808080;stop-opacity:0.12"/>
		<stop  offset="1" style="stop-color:#808080;stop-opacity:0.1"/>
	</linearGradient>
	<path class="st8" d="M82.9,287.9l0.7,0.2C83.4,287.9,83.1,287.9,82.9,287.9z"/>
	
		<linearGradient id="SVGID_4_" gradientUnits="userSpaceOnUse" x1="228.0154" y1="-13.7501" x2="228.0154" y2="589.7708" gradientTransform="matrix(1 0 0 -1 -88.27 808.92)">
		<stop  offset="0" style="stop-color:#808080;stop-opacity:0.25"/>
		<stop  offset="0.54" style="stop-color:#808080;stop-opacity:0.12"/>
		<stop  offset="1" style="stop-color:#808080;stop-opacity:0.1"/>
	</linearGradient>
	<path class="st9" d="M237.6,404.1c-2.2-14.8-15.7-49.5-15.7-49.5c-0.2-1-0.5-2.1-0.8-3.1c-9.6-32.9-22.8-35.8-22.8-35.8l-47.4-10.1
		c0.4,0.2,0.7,0.6,1,0.9l-0.8,0.1c-2.2-2.6-3.6-5.7-4.2-9c-0.1-0.5-0.2-1-0.2-1.5c13.2-12.9,13.5-34,0.6-47.2c-1-1.1-2.2-2.1-3.3-3
		c-0.5-0.4-1-0.8-1.5-1.1c2.2-2.4,2.3-5.7,0.6-9c-3.7-7.8-11.9-12.7-20.2-15.1c-6.4-1.8-13.3-2.4-19.6-0.4
		c-3.6,1.1-6.9,3.1-10.3,4.8c-6.3,3.1-13.2,5.6-18,10.8c-1.1,1.2-2.1,2.8-1.8,4.3c0.3,1.2,1.2,2.1,1.8,3.2c1.4,2.4,1,5.3,0.1,7.9
		s-2.3,5-2.9,7.6s-0.4,5.7,1.6,7.6c1,0.8,2,1.5,3,2.1c1.1,0.9,2,2,2.8,3.2l5.6,7.6c2.6,3.4,5,6.9,7,10.7c1.4,2.8,2.5,5.7,4.4,8.2
		c0.6,0.7,1.2,1.4,1.9,2c-0.2-0.1-0.4-0.1-0.6-0.2c1.7,1.6,3.9,2.5,6.3,2.4h0.3c0.4,0,0.8-0.2,1.1-0.5v1c0.1,3.6,0.1,7.5-0.2,11.2
		l-0.4-0.2c-1.3-0.7-2.9-0.5-4.1,0.4l-43.7,35c0,0-9.5,13-8.2,35.4l-7.6,33.6c0,0-9.6,28.5-2.2,48.9c7.4,20.4,11.6,32,11.6,32
		s2.9,23.1,7.4,25s6.3,2.9,6.3,2.9l0.9,5.5c0,0,0.3,0.5,0.8,1.5c3.2,5.6,15.1,25.3,22.1,23.2c0.9,5.4,1.2,10.8,1.1,16.2l6.8,46
		c0,0,4.8,12.5,4.5,19.1s5.6,15.9,5.6,15.9c-3.6,6.5-4.6,14.1-2.9,21.4c2.8,12.2,6.3,68.7,6.3,68.7l5.1,13.7l-0.1,16
		c-0.4,2.6-1.5,5-3.2,7.1c-3.3,3.6-3.1,7.8-11,12.7s-13,6.8-13,13.3c0,0.9-0.1,1.8-0.2,2.7c-0.7,4.8-2.2,7.4,12.5,8.8
		c17.2,1.6,28.7-9.6,28.7-9.6s2.5-4.6,14.5-6.4c0,0,4.1-0.2,4.3-3.8c0.1-1.2,0.1-3.6,0-6.2c-0.2-5-0.7-10.8-1.3-11.1
		c-0.8-0.3-2.2-5.4-2.7-7.2h3.3c0,0,3.1-23.1,0-38.1s-0.3-25.6-0.3-25.6l-0.6-39.6c0,0-4.2-4.2-0.9-11.9c3.3-7.7,0-45.8,0-45.8
		s1.2-13.7,4.6-16.9s0.2-20,0-20.9l6,20.2c0,0,2.6,40.2,8.3,47.5l1.6,18.2c0,0,11.5,16.7,9.3,25.8s2.4,41.6,2.4,41.6v33.3
		c0,0-5.2,13.4,2.1,18.2l3.1-0.1c-1.1,1-1.8,2.4-3,3.6c-1.4,1.4-2.2,6.8-2.6,11.5c-0.4,3.9-0.5,7.3-0.5,7.3s3.1,4.9,8.8,5.2
		s24.7,14.8,24.7,14.8s18.8,0,23.6-1l0.3-0.1c1.6-0.5,2.9-1.6,3.7-3c1-1.7,1.3-3.6,0.9-5.5c-0.6-2.9-2.9-6-7.9-8.7
		c-12.6-6.7-14.5-12.9-14.5-12.9l-8.3-12.4h1.2c0,0-0.7-13.1,8.2-27.8l-0.6-64.8c0,0,3.7-22.3-2.6-34.3c0,0-0.5-12.8,3.7-16.7
		s-5.6-43.7-5.6-43.7s-2-21.3-4.4-40.8c9.9,9.4,20.2-24.5,22-30.5h0.3c0,0,0-0.2-0.1-0.4s0.1-0.4,0.1-0.4c0,0-2.2-7.8-0.6-6.3
		c1.6,1.6,5.6-4.4,5.6-4.4s-0.6-32.5,6.3-48.8S237.6,404.1,237.6,404.1L237.6,404.1z M208,424.7L208,424.7c1,19.7-0.2,62-0.2,62
		s-1.4,5.4-2.8,11.8l-1-40.2l-1-37.8L208,424.7z M81.3,411.1c0,0,5,62.6,0,71.6c-1.4,2.6-2.6,7.1-3.6,12.4
		c-1.6-4.3-5.1-14.5-3.9-19.9c1.6-7-3.2-25.3-3.2-25.8s-0.4-10.2,3.1-17.7s1.2-10.7,1.2-10.7S77.7,408.8,81.3,411.1L81.3,411.1z"/>
	<path class="st10" d="M93.4,552c-4.3,19.2-21.7-9.8-25.6-16.8l-0.8-1.4l1.9-8.8l9.9-4c1.6,0.8,3.1,1.8,4.4,2.9
		C88.7,528.1,96.8,537.2,93.4,552z M227.9,520.7l-0.1,0.4c0,0.1-0.1,0.3-0.1,0.5c-1.7,6-11.8,39.7-21.6,30.3
		c-10.7-10.3-5.5-33.8-5.5-33.8h0.1l22.5-2.3l4.4,4.6L227.9,520.7z"/>
	<path class="st11" d="M214.9,686.4l0.6,64.3c-8.8,14.6-8.1,27.6-8.1,27.6l-29,1.2c-7.1-4.8-2-18-2-18v-33.1c0,0-4.5-32.3-2.4-41.3
		s-9.1-25.6-9.1-25.6l-1.6-18c-5.5-7.2-8.1-47.1-8.1-47.1l-5.9-20c0.1,0.9,3.2,17.7,0,20.8s-4.5,16.8-4.5,16.8s3.2,37.8,0,45.5
		s0.9,12,0.9,12l0.6,39.3c0,0-2.8,10.5,0.3,25.4s0,37.8,0,37.8h-31.2l0.1-16l-5.1-13.6c0,0-3.5-56-6.2-68.2
		c-1.6-7.2-0.6-14.7,2.9-21.2c0,0-5.8-9.3-5.5-15.8s-4.4-18.9-4.4-18.9l-6.7-45.7c0.2-8.8-0.9-17.5-3.3-26c-3.9-13-9.7-30-9.7-30
		l6.5,0.6l32.9,2.9c0,0,80-5.4,83.6-0.9c0.8,1.5,1.3,3,1.5,4.7c3.6,16.2,8.3,66.7,8.3,66.7s9.7,39.4,5.5,43.3s-3.6,16.6-3.6,16.6
		C218.5,664.3,214.9,686.4,214.9,686.4L214.9,686.4z"/>
	<path class="st12" d="M147.3,798.1c-0.2,3.6-4.2,3.8-4.2,3.8c-11.7,1.8-14.2,6.4-14.2,6.4s-11.3,11.2-28.2,9.6
		c-14.4-1.4-13-4-12.3-8.7c0.1-0.9,0.2-1.8,0.2-2.7c0-6.5,5-8.3,12.8-13.2s7.6-9,10.8-12.6s3.6-10.5,3.6-10.5c3.7-6.4,13,1,13,1
		c0.4,2.3,14.3,2,14.3,2s1.8,7.4,2.8,7.8c0.6,0.3,1.1,6.1,1.3,11C147.4,794.6,147.4,796.9,147.3,798.1L147.3,798.1z"/>
	<path class="st13" d="M147.3,798.1c-0.2,3.6-4.2,3.8-4.2,3.8c-11.7,1.8-14.2,6.4-14.2,6.4s-11.3,11.2-28.2,9.6
		c-14.4-1.4-13-4-12.3-8.7c6.4,1.6,18.7,3.8,25.9-0.1c10-5.4,17.1-9.2,17.1-9.2l15.7-8C147.4,794.5,147.4,796.9,147.3,798.1
		L147.3,798.1z"/>
	<path class="st12" d="M235.5,817.4c-0.8,1.4-2.1,2.5-3.6,3c-0.1,0-0.2,0.1-0.3,0.1c-4.8,1-23.2,1-23.2,1s-18.7-14.5-24.3-14.8
		s-8.7-5.2-8.7-5.2s0.1-3.4,0.5-7.3c0.4-4.6,1.2-10,2.6-11.4c2.5-2.6,3-6.2,8.7-3.9c0,0,8-14.1,17.4-3.2l9.8,14.8
		c0,0,1.8,6.2,14.2,12.8c4.9,2.7,7.2,5.8,7.8,8.6C236.7,813.8,236.4,815.8,235.5,817.4L235.5,817.4z"/>
	<path class="st13" d="M235.5,817.4c-1.1,0.9-2.3,1.9-3.6,3c-0.1,0-0.2,0.1-0.3,0.1c-4.8,1-23.2,1-23.2,1s-18.7-14.5-24.3-14.8
		s-8.7-5.2-8.7-5.2s0.1-3.4,0.5-7.3c5.7,1.7,14.4,4.8,16.8,8c3.6,5,14.4,11.9,14.4,11.9s20.2-1.9,29.2-2.2
		C236.7,813.8,236.4,815.8,235.5,817.4L235.5,817.4z"/>
	<path class="st10" d="M156.7,313.3l-26.7,28.2c0,0-32.3-2.4-26.7-11.9c2.9-4.9,3.3-15,3.1-23.9c-0.2-8.5-1.1-15.8-1.1-15.8
		s45.3-22.5,41.8-1.5c-0.7,4-0.8,8-0.1,12C149,311,156.7,313.3,156.7,313.3L156.7,313.3z"/>
	<path class="st13" d="M147.2,288.4c-0.7,4-0.8,8-0.1,12c-6.3,6.3-14.8,9.9-23.7,9.9c-6.2,0-12.8-5-17.7-8
		c-0.2-8.5-0.3-12.4-0.3-12.4S150.6,267.3,147.2,288.4z"/>
	<path class="st10" d="M156.7,275.1c0,18.4-14.9,33.4-33.4,33.4c-18.4,0-33.4-14.9-33.4-33.4c0-18.4,14.9-33.4,33.4-33.4
		c7.6,0,14.9,2.6,20.8,7.3C152.1,255.4,156.7,265,156.7,275.1z"/>
	<path class="st13" d="M202.1,525.6c-8.3,19.8-61.8,20.2-61.8,20.2v-21.6l-3.2-0.2c1.4,6.2-2,21.2-2,21.2
		c-42.3,6-52.5-18.1-52.5-18.1l1.5-8.2l32.9,2.9c0,0,80-5.4,83.6-0.9C201.3,522.4,201.9,524,202.1,525.6L202.1,525.6z"/>
	<path class="st14" d="M140.4,543.2v-21.6l-3.2-0.2c1.4,6.2-2,21.2-2,21.2c-31.8,4.5-45.5-8-50.3-14.5c-0.9-1.1-1.6-2.3-2.2-3.6
		L95.5,452l3-106.8l4.7-18.7l1.1-9v-0.1l0.1,0l3.3,1.4l19.7,8.5l22.5-16.9l0.3-0.3l1.1-0.8l1.9,1.5l4.6,3.7l14.7,95.1
		c0,0,25.6,73.3,30.3,102.8c0.2,1.2,0.4,2.3,0.5,3.3C206.2,542.7,140.4,543.2,140.4,543.2z"/>
	<circle class="st15" cx="129.7" cy="329.3" r="1.9"/>
	<circle class="st15" cx="130.6" cy="346.6" r="1.9"/>
	<circle class="st15" cx="132.5" cy="374.7" r="1.9"/>
	<circle class="st15" cx="135.6" cy="404.9" r="1.9"/>
	<circle class="st15" cx="137.5" cy="433.3" r="1.9"/>
	<circle class="st15" cx="139.4" cy="463.6" r="1.9"/>
	<circle class="st15" cx="138.7" cy="493.5" r="1.9"/>
	<path class="st13" d="M105.5,462.5c0,0-2.1,27.8-6,35.9s-5.6,30.8-5.6,30.8l-9-1c-0.9-1.1-1.6-2.3-2.2-3.6L95.6,452l3-106.8
		l4.7-18.7l1.1-9c0,0,0.1,0,0.1,0c1-0.5,2.2-0.5,3.2,0l0.4,0.2c-0.1,0.4-0.3,0.8-0.4,1.1c-3.5,11-4.8,31.4-4.8,31.4
		s5.1,37.3,5.6,54.6S105.5,462.5,105.5,462.5L105.5,462.5z"/>
	<path class="st13" d="M83.3,523.8c-0.1,0.2-0.2,0.5-0.3,0.7c-3.5,5.9-12.4,9.7-15.1,10.7l-0.8-1.4l1.9-8.8l9.9-4
		C80.4,521.8,81.9,522.7,83.3,523.8z"/>
	<path class="st15" d="M59.2,382l-8.2,4.9l-7.5,33.4c0,0-9.4,28.3-2.2,48.5s11.4,31.8,11.4,31.8s2.9,23,7.2,24.8s6.2,2.9,6.2,2.9
		l0.9,5.5c0,0,11.8-4,15.9-11s-3.1-24.5-3.1-24.5s-6.2-14.9-4.6-21.8s-3.2-25.1-3.2-25.6s-0.4-10.1,3-17.6s1.2-10.6,1.2-10.6
		l-2.2-21.2L59.2,382z"/>
	<path class="st13" d="M202.8,519.4c0,0-21.8,8.2-28.8,1s-6.2-41-6.2-41s-6.6-62.4-10.8-72.7s-2-84.2-2-84.2s-2.8-9.5-5.3-12.1
		c-0.2-0.2-0.3-0.3-0.5-0.4l0.9,0.2l3,0.6l4.6,3.7l14.7,95.1c0,0,25.6,73.3,30.3,102.8L202.8,519.4z"/>
	<path class="st13" d="M227.9,521.5h-0.3c-2.7,0.3-27,3.3-27.1-1.8c0-0.6,0-1.2,0.1-1.8l22.5-2.3l4.4,4.6c0.1,0.3,0.1,0.6,0.2,0.8
		L227.9,521.5z"/>
	<path class="st15" d="M204.7,348.5l15.9,8.3c0,0,13.2,34.4,15.4,49.1c0,0,9.8,39.5,3,55.7s-6.2,48.5-6.2,48.5s-3.9,5.9-5.5,4.3
		s0.6,6.2,0.6,6.2s-27.2,3.6-27.4-1.7s6.3-30.9,6.3-30.9s1.7-60.8-0.7-70.4S204.7,348.6,204.7,348.5L204.7,348.5z"/>
	<path class="st13" d="M157.1,413.3c0,0-9,22-11.9,23.4s0.6,7.2,0.6,7.2S162.2,421.1,157.1,413.3z M151.8,336.3
		c0.1-0.4-10.7,10.6-13.6,12.2S148.7,348.5,151.8,336.3z M121.7,411.6c0,0-16.5,10.7-14.3,14.9S121.7,411.6,121.7,411.6z M151.7,567
		c0,0,14,9,35.8,11.3L151.7,567z M118,588.7c0,0,13,16.3,18.9,16.8S118,588.7,118,588.7z M136.2,652.7c-0.6,0.3-7.4,14.7-14.3,15.2
		S136.2,652.7,136.2,652.7z M196.4,684.3c0,0,12.9-2.9,15.7,6.4C212.2,690.7,211.3,687.8,196.4,684.3z M187.8,737.2
		c0,0,15.6-3.2,18.9,1.2S187.8,737.2,187.8,737.2z M143.6,744.6c0,0.1-15.9,3.2-15.3,5.2s16.9,1.7,17.5-1.5c0.5-1.6-0.5-3.3-2.1-3.7
		C143.7,744.6,143.7,744.6,143.6,744.6L143.6,744.6z M182.6,758.3c0,0,26.1-3.2,24.5,2.3S182.6,758.3,182.6,758.3L182.6,758.3z
		 M45.9,436.7c0.2,0.4,17.2,2.7,19.5,8.2c0,0-16.8-7.8-19.3-7.8 M69.9,481.4c0,0-14.2,4.5-13.2,11.3S55.3,489.5,69.9,481.4z
		 M63.3,515.8c0,0,5.2-7.1,10.1-5.8S63.3,515.8,63.3,515.8z M144.2,249.1c-0.5,0.5-1.1,0.9-1.7,1.2c-4.1,2.4-5.2,6-7.2,10.3
		c-1.8,3.9-3.8,8-7.4,10.2c-4.7,2.8-10.9,1.8-15.8,4.3c-4.4,2.3-7,7.1-6.5,12.1c0.3,1.9,0.8,3.7,1.4,5.5c1.1,3.9,1.6,7.9,1.5,12
		c0,0.1,0,0.2,0,0.4c-16.5-8.2-23.2-28.3-15-44.8s28.3-23.2,44.8-15C140.4,246.3,142.4,247.6,144.2,249.1L144.2,249.1z"/>
	<path class="st16" d="M143.3,239c-3.7-7.7-11.6-12.6-19.8-15c-6.3-1.8-13.1-2.4-19.3-0.4c-3.5,1.1-6.8,3-10.1,4.7
		c-6.2,3.1-13,5.6-17.7,10.7c-1.1,1.2-2.1,2.7-1.8,4.3c0.2,1.2,1.2,2.1,1.8,3.1c1.3,2.3,1,5.3,0.1,7.8c-0.9,2.6-2.2,4.9-2.9,7.5
		s-0.4,5.7,1.6,7.6c0.9,0.7,1.9,1.4,2.9,2.1c1.1,0.9,2,2,2.8,3.1l5.5,7.5c2.6,3.3,4.9,6.9,6.9,10.6c1.4,2.7,2.4,5.6,4.3,8.1
		s4.7,4.4,7.7,4.1c0.5,0,0.9-0.2,1.2-0.6c0.1-0.2,0.2-0.5,0.2-0.8c0.1-4.1-0.4-8.1-1.5-12c-0.6-1.8-1.1-3.7-1.4-5.5
		c-0.5-5,2.1-9.8,6.5-12.1c4.9-2.5,11.1-1.4,15.8-4.3c3.6-2.2,5.6-6.3,7.4-10.2c2-4.2,3.1-7.9,7.2-10.3S145.3,243.1,143.3,239
		L143.3,239z"/>
	<path class="st13" d="M128.3,784.5c0,0,5.1,6.5,3.8,10.2S128.3,784.5,128.3,784.5z M197.4,800.8c0,0,1.1-8.7,5.7-8.8
		s4.8-0.5,8.2,0.9s6.7,3.4,5.7,3.7s-6-5-11-2.3C202.8,796,199.9,798.2,197.4,800.8z M113.1,338.1l14.2-10c0,0-20.9-12.4-23.4-10.6
		s-4.2,17.3-4.2,17.3L113.1,338.1z"/>
	<path class="st14" d="M113.1,337.5l14.3-10.2c0,0-20.9-12.4-23.4-10.6s-4.2,18.2-4.2,18.2L113.1,337.5z"/>
	<path class="st17" d="M113.1,337.5l14.3-10.2c0,0-20.9-12.4-23.4-10.6s-4.2,18.2-4.2,18.2L113.1,337.5z"/>
	<path class="st15" d="M106.3,316.8l-0.4-0.2c-1.3-0.7-2.9-0.5-4,0.4L59,351.8c0,0-9.3,12.9-8,35.1l25.3,35.8c0,0,2.9-12.1,6.4-9.8
		c0,0,4.9,62.1,0,71.1s-7.1,42.5-7.1,42.5l16.6,1.9c0,0,1.7-22.7,5.6-30.8s6-35.9,6-35.9s3.5-40.4,2.9-57.7s-5.6-54.6-5.6-54.6
		S102.5,327.5,106.3,316.8L106.3,316.8z"/>
	<path class="st13" d="M149,331.8l-17.8-6.6c0,0,22.7-24.8,25.5-11.1L149,331.8z"/>
	<path class="st14" d="M149,330.9l-17.8-6.6c0,0,22.7-24.9,25.5-11.1L149,330.9z"/>
	<path class="st17" d="M149,330.9l-17.8-6.6c0,0,22.7-24.9,25.5-11.1L149,330.9z"/>
	<path class="st13" d="M148.4,309.8c0.3,0,0.5,0,0.7,0.1L148.4,309.8z"/>
	<path class="st15" d="M150.2,308.1l47.3,10.2c0,0,13,2.9,22.4,35.5S207,426.5,207,426.5l-4.9-4.2l2.5,95.4c0,0-21.8,8.2-28.8,1
		s-6.2-41-6.2-41s-6.6-62.4-10.8-72.7s-2-84.2-2-84.2S152.8,307.5,150.2,308.1z"/>
	<path class="st13" d="M193.4,368.8c-0.7,0.6-1.4,29.5,1.4,51.4c1.8,13.4,4.5,26.6,8.2,39.6l-4.3-88
		C198.8,371.8,195.4,366.9,193.4,368.8L193.4,368.8z M187.6,344c1.2,0.7,6.2,12.7,3.9,17.6S187.6,344,187.6,344z M143,239
		c-2.3-4.6-5.9-8.4-10.4-10.9c3.3,2.4,6,5.5,7.8,9.1c2,4.1,1.4,8.1-2.5,10.4s-5.2,6-7.2,10.3c-1.8,3.9-3.8,8-7.4,10.2
		c-4.7,2.8-10.9,1.8-15.8,4.3c-4.4,2.3-7,7.1-6.5,12.1c0.3,1.9,0.8,3.7,1.4,5.5c1.1,3.9,1.6,7.9,1.5,12c0,0.3,0,0.5-0.2,0.8
		c-0.3,0.4-0.7,0.6-1.2,0.6c-1.2,0.1-2.5-0.1-3.6-0.7c1.6,1.6,3.9,2.5,6.2,2.4c0.5,0,0.9-0.2,1.2-0.6c0.1-0.2,0.2-0.5,0.2-0.8
		c0.1-4.1-0.4-8.1-1.5-12c-0.6-1.8-1.1-3.7-1.4-5.5c-0.5-5,2.1-9.8,6.5-12.1c4.9-2.5,11.1-1.4,15.8-4.3c3.6-2.2,5.6-6.3,7.4-10.2
		c2-4.2,3.1-7.9,7.2-10.3S145,243.1,143,239z"/>
	<ellipse class="st0" cx="968.2" cy="761.7" rx="41" ry="5.6"/>
	<ellipse class="st0" cx="646.8" cy="814.6" rx="29.1" ry="4"/>
	<ellipse class="st0" cx="386.1" cy="784.9" rx="29.1" ry="4"/>
	<path class="st5" d="M402.1,775.8c1.8-1.5,3.2-3.5,3.8-5.8c0.5-2.3-0.5-5-2.7-5.9c-2.5-0.9-5.1,0.8-7.1,2.5s-4.3,3.7-6.9,3.3
		c2.7-2.5,4-6.2,3.2-9.8c-0.1-0.7-0.4-1.4-0.9-2c-1.4-1.5-3.9-0.8-5.5,0.3c-5.2,3.7-6.6,10.7-6.7,17.1c-0.5-2.3-0.1-4.7-0.1-7
		s-0.6-5-2.6-6.2c-1.2-0.7-2.6-1-4-1c-2.3-0.1-4.9,0.2-6.5,1.9c-2,2.1-1.5,5.7,0.3,8s4.4,3.8,6.8,5.4c1.9,1.2,3.6,2.7,4.8,4.6
		c0.1,0.3,0.3,0.5,0.4,0.8h14.7C396.4,780.4,399.4,778.3,402.1,775.8L402.1,775.8z M984.9,754.7c1.8-1.5,3.2-3.5,3.9-5.8
		c0.5-2.3-0.5-5-2.7-5.9c-2.5-0.9-5.1,0.8-7.1,2.5s-4.3,3.7-6.9,3.3c2.7-2.5,4-6.2,3.2-9.8c-0.1-0.7-0.4-1.4-0.9-2
		c-1.4-1.5-3.8-0.8-5.5,0.3c-5.2,3.7-6.7,10.7-6.7,17.1c-0.5-2.3-0.1-4.7-0.1-7s-0.7-5-2.6-6.2c-1.2-0.7-2.6-1-4-1
		c-2.3-0.1-4.9,0.2-6.5,1.9c-2,2.1-1.5,5.7,0.3,8s4.3,3.8,6.8,5.4c1.9,1.2,3.6,2.7,4.8,4.6c0.1,0.3,0.3,0.5,0.4,0.8h14.7
		C979.1,759.3,982.2,757.2,984.9,754.7L984.9,754.7z M654.7,801.5c1.8-1.5,3.2-3.5,3.8-5.8c0.5-2.3-0.5-5-2.7-5.9
		c-2.5-0.9-5.1,0.8-7.1,2.5s-4.3,3.7-6.9,3.3c2.7-2.5,4-6.2,3.2-9.8c-0.1-0.7-0.4-1.4-0.9-2c-1.4-1.5-3.8-0.8-5.5,0.3
		c-5.2,3.7-6.7,10.7-6.7,17.1c-0.5-2.3-0.1-4.7-0.1-7s-0.7-5-2.6-6.2c-1.2-0.7-2.6-1-4-1c-2.3-0.1-4.9,0.2-6.5,1.9
		c-2,2.1-1.5,5.7,0.3,8s4.3,3.8,6.8,5.4c2,1.2,3.6,2.8,4.9,4.7c0.1,0.3,0.3,0.5,0.4,0.8h14.6C649,806.1,652,803.9,654.7,801.5z"/>
	
		<linearGradient id="SVGID_5_" gradientUnits="userSpaceOnUse" x1="944.1151" y1="-9.9818" x2="944.1151" y2="571.5405" gradientTransform="matrix(1 0 0 -1 -88.27 808.92)">
		<stop  offset="0" style="stop-color:#808080;stop-opacity:0.25"/>
		<stop  offset="0.54" style="stop-color:#808080;stop-opacity:0.12"/>
		<stop  offset="1" style="stop-color:#808080;stop-opacity:0.1"/>
	</linearGradient>
	<path class="st18" d="M948.6,345.2c-13.1-0.3-24.7-9.6-31.3-20.8c-1.7-2.7-2.8-5.7-3.2-8.9c0-0.7,0.2-1.4,0.4-2.1
		c0.4-1.1,0.8-2.1,1-3.3c0.1-0.4,0.1-0.9,0-1.3v-0.1c0.3-2.4-1.1-4.8-2.9-6.4s-4-2.9-5.8-4.5c-5.6-5-7.3-12.9-7.5-20.5v-0.4
		c0.1-3.2,0.3-6.5,0.3-9.7c0-1.8,0-3.7-0.2-5.5c-0.5-4.6-2.3-9.2-5.9-12.2c-9.4-7.6-25.2,0.3-34.9-6.9c-2.4-1.8-4.3-4.4-7.1-5
		c-2.2-0.5-4.4,0.2-6.5,0.9c-7.2,2.4-15.1,5.5-17.9,12.4c-1.6,4-1.2,8.5-2.6,12.5c-1,2.7-2.8,5-4.1,7.6c-1.1,1.9-1.6,4.1-1.5,6.3
		c-0.1,1.1,0.1,2.3,0.5,3.4c0.5,1.3,1.3,2.4,2.3,3.3c-0.4,0.8-0.8,1.5-1.4,2.2c-1.8,2.2-4.6,3.8-6.5,6c-3.5,4.1-3.4,9.6-1.7,14.4
		s4.9,9.2,7,13.8c0.9,2,1.7,4.3,0.7,6.3c-0.7,1.4-2.1,2.5-3.2,3.7c-1.6,1.8-2.6,4-2.9,6.4c-21.4,4.9-21.4,22.1-21.4,22.1l-11.6,29.1
		c0,0-1.8,4.9-4,11.4L763,397l9.5,15.9c-1.8,6.5-3.1,12.5-2.7,15.5c0,0-4.3,20,3.3,23.5l16.7,7.5c0.7,0.4,1.5,0.8,2.3,1l0.7,0.3
		c0.5,0.2,1.1,0.2,1.6,0h0.3c0.3,0,0.7,0,1-0.1c0.4-0.2,0.7-0.5,0.8-0.9c0,0,0-0.1,0-0.1l5-1.5l4.2,5c1.9,1.3,3.8,2.5,5.6,3.6
		l-6.5,65.2c0,0-1.1,86.7-4.3,106.4c-1.2,7.3-1.2,12.3-0.8,15.7l-0.1,0.2c0.8,5.6,2.8,6.7,2.8,6.7v-0.1l0.1,0.1c1-2.5,2.1-5,3.4-7.3
		v1.4c-0.1,7.4-0.3,17.7-1,24.3c-1.3,11.4,3.3,49.1,3.3,49.1l1.6,34.3c0.3,5.8-1.1,11.6-3.9,16.7c-3.8,6.8-8.7,16.5-9,20.8
		c0,0.2,0,0.5,0,0.7l-8.4,9.7c0,0-3.2,4.9,4,6.9c3.9,1.1,10.6,0,15.9-1.3c4.8-1.1,8.3-5.4,8.3-10.3c1.4-4.7,3.7-9.1,6.8-12.9
		l1.3,7.9l9,2.2l1.2-21.6c0.5-1.2,0.7-2.5,0.6-3.8c1.8-15.4-4.2-14-4.2-14c0.2,0.1,0.3,0.3,0.3,0.5c-0.1-0.2-0.2-0.3-0.3-0.5
		c-3.7-7.2-1.9-19-1.9-19s4.7-34.3,6.4-43.3c1.2-6.4,0.7-27.3,0.3-39.1c0-0.5,0-1,0-1.4c13.9-0.2,31-0.7,43-1.8v1.4l-2.2,81
		c-0.1,5.2-1.2,10.3-3.1,15.1c0,0.1-0.1,0.2-0.1,0.3c-2.7,6.8-4.2,13.9-4.5,21.2l-1,25.7v0.7c-1.8,0.7-4.6,2.7-4.7,8.5
		c-0.1,8.5,14.8,5.6,14.8,5.6c14.9,0,15-15.5,15-15.5s0.5-14.2,1.2-23.7s-2.2-7.4-2.2-7.4l-0.2,27v0.2v-23.7l0.2-3.4v-0.1l0-0.7
		l1.8-27.9c0,0,13.7-46.5,15.8-55.4c1.5-6.3,0.9-25.4,0.4-36c0-0.5,0-1-0.1-1.4c4.2-0.4,8-0.4,9.5-0.4h0.7c0,0-0.7-74.7-2.5-102.9
		s-4.6-53.9-11.7-61.6c-4.3-4.7-10.3-19.1-14.3-29.9c8.5,3.7,17.3,6.5,26.3,8.6c22.5,4.7,19.4-14.8,19.4-14.8l-2.3-36.9h0.2
		c-0.1-9.7-0.9-19.3-2.5-28.8c-1.2-7.3-3-14.9-5.8-21c2.4-0.9,4.8-2,7.2-3c6.1-2.7,13-6.5,13.9-13.1h-0.3
		C948.5,346.1,948.5,345.6,948.6,345.2L948.6,345.2z M809.4,398.5c0.1,3.8-0.1,10.4-0.3,17.7l-7.1-9.5l7.2-11.6L809.4,398.5z
		 M907.9,432.2l-11.9-3.8c2.1-3.3,4.6-6.3,7.3-9.1l1-1l-0.4,0.1l0.6-0.5l0.3-0.1l-0.5,0.5l0.7-0.1c0.7,3,2.1,5.8,4,8.1
		C913.3,431,907.9,432.2,907.9,432.2L907.9,432.2z"/>
	<path class="st19" d="M835.7,775l-1.4,26.3l-8.9-2.2l-1.9-11L835.7,775z"/>
	<path class="st13" d="M835.7,775l-1.4,26.3l-8.9-2.2l-1.9-11L835.7,775z"/>
	<path class="st20" d="M868.2,804.8l13.5,2.8l10-8.9v-25l0.2-3.4v-0.1l0-0.7l1.8-27.7c0,0,13.5-46.2,15.6-55
		c1.5-6.3,0.9-25.3,0.4-35.7c-0.2-4.3-0.4-7.2-0.4-7.2l-29.8-7.2l-0.6,23l-2.2,80.4c-0.1,5.1-1.2,10.2-3.1,15l-0.1,0.3
		c-2.6,6.7-4.1,13.9-4.3,21.1l-1,25.5v0.7L868.2,804.8z"/>
	<path class="st13" d="M892,769.6v0.7V769.6L892,769.6z M868.2,804.8l13.5,2.8l10-8.9v-2.1c-0.1,1-0.6,1.8-1.4,2.3l-0.1,0.1
		c-4.7,2.5-9.9,3.5-15.2,3l-5.3-0.5c-0.5,0.1-0.9,0.2-1.4,0.3v0.7L868.2,804.8z"/>
	<path class="st12" d="M890.2,799.7l0.1-0.1c0.9-0.5,1.5-1.5,1.5-2.5l0.2-26.9c0,0,2.9-2.1,2.2,7.4s-1.2,23.5-1.2,23.5
		s-0.1,15.4-14.8,15.4c0,0-14.7,2.8-14.6-5.6s6.1-8.7,6.1-8.7l5.3,0.5C880.3,803.2,885.6,802.1,890.2,799.7L890.2,799.7z"/>
	<path class="st20" d="M797.8,799.1c0.3,6.1,18.2,2.6,18.2,2.6l12-23.3c0,0,10-7.7,5-14.5c-0.3-0.4-0.5-0.8-0.7-1.2v-0.1
		c-0.1-0.2-0.2-0.4-0.3-0.5c-3.6-7.1-1.8-18.8-1.8-18.8s4.7-34,6.3-43c1.2-6.3,0.7-27.1,0.3-38.8c-0.2-4.8-0.3-8.1-0.3-8.1
		l-29.6-7.9v8.8c-0.1,7.3-0.3,17.5-1,24.2c-1.3,11.3,3.3,48.7,3.3,48.7l1.6,34.1c0.2,5.8-1.1,11.5-3.9,16.5
		c-3.7,6.8-8.6,16.4-8.9,20.6C797.8,798.6,797.8,798.9,797.8,799.1L797.8,799.1z"/>
	<path class="st13" d="M797.8,799.1c0.3,6.1,18.2,2.6,18.2,2.6l12-23.3c0,0,10-7.7,5-14.5c-0.3-0.4-0.5-0.8-0.7-1.2
		c-0.2,3.5-4,12.3-4,12.3s-9.9,19.8-13,24.4s-16.8-0.8-17.4-1C797.9,798.6,797.8,798.9,797.8,799.1z"/>
	<path class="st12" d="M832,762.1c0,0,5.9-1.4,4.1,13.9c0.1,3.5-1.6,6.9-4.7,8.7c-4.2,2.6-10.7,8.3-13.9,19.3
		c0,4.9-3.4,9.2-8.1,10.3c-5.3,1.2-11.9,2.3-15.7,1.3c-7.1-2-4-6.9-4-6.9l8.2-9.7c0,0,14.2,5.6,17.4,1s13-24.4,13-24.4
		S833.7,763.4,832,762.1L832,762.1z"/>
	<path class="st13" d="M879.7,639.5l-0.6,23c8-0.8,13.6-1.8,14.6-3.4c2.1-3.3,9.7-4.6,16.2-5.2c-0.2-4.3-0.4-7.2-0.4-7.2
		L879.7,639.5z M806.8,657.1c0.8-1.6,1.9-2.9,3.3-3.9c3.2-1.8,2.8,11.2,2.8,11.2s10.5,0.1,23.8-0.1c-0.2-4.8-0.3-8.1-0.3-8.1
		l-29.6-7.9C806.8,648.2,806.8,651.9,806.8,657.1L806.8,657.1z"/>
	<path class="st11" d="M785,765c-8,6.4,15.3-14.7,25-17.9c6.9-2.3,17.3-2.7,33,5.9c5.5,0.9,13.2,1.4,21-2c6.1-2.6,5.7-4.7,13.2-9.6
		c13.7-8.9,27.4-10.1,31.8-10.4c4.2-0.3,7.7-0.2,10,0c2.1-24.2,7.7-95.9,6-162c-1.4-53.7-5.6-24.6-8-70c-0.8-15.7-1.3-37.7-14-46
		c-3-2-15.6-9-15.6-9l-73.4,4.2l-0.6,5.9l-7.8,78c0,32.9-1.2,68.2-4.2,105.6C797.7,683.7,791.9,726.3,785,765z"/>
	<g class="st21">
		<path d="M887.7,654.9c3.8-5.9,26.2-5.6,26.2-5.6s-0.7-74.2-2.5-102.1S907,493.7,900,486c-4.5-5-11-21.1-14.9-31.8
			c-1.8-4.9-3.1-8.7-3.5-9.8l5.7-0.3c4,1.2,10.2,3.7,15.8,9c10.2,9.7,12,22.8,12.9,29.8c6.2,48.6,9.3,72.8,9.1,86.2
			c-0.6,39.3-5.2,78.9-5.3,80.3l0,0c-6.8,1.7-15.7,3.8-26.2,5.6c-45.3,8-77,5.3-76.3,5.3C838.2,660.1,884.7,659.5,887.7,654.9z
			 M804.1,648.9c1.4-0.8,2.1,1.4,2.5,4c-1.3,2.3-2.4,4.7-3.3,7.2c0,0-2-1.1-2.8-6.6C801.6,651.5,802.9,649.6,804.1,648.9z"/>
	</g>
	<path class="st16" d="M826.1,264.6c-5.1,6.9,0.1,16.8-5.4,23.5c-1.8,2.2-4.6,3.8-6.5,6c-3.5,4.1-3.3,9.6-1.6,14.3s4.8,9.1,6.9,13.7
		c0.9,2,1.7,4.3,0.7,6.3c-0.7,1.4-2,2.4-3.1,3.6c-3.5,3.9-3.6,9.4-1.7,14s5.5,8.6,9,12.5c1.4,1.5,3.2,3.2,5.5,3.2
		c1.2-0.1,2.4-0.5,3.5-1.1c8.3-4.4,14.6-11.8,17.6-20.6c2.5-8.4,2-17.3-1.5-25.4c-3-7.1-7.9-13.9-7.9-21.3c0-5.9,3-11.6,3.6-17.5
		c0.7-7.2-3.6-18.6-12.3-21.7C833.5,258.7,828.7,261.1,826.1,264.6L826.1,264.6z"/>
	<path class="st13" d="M826.1,264.6c-5.1,6.9,0.1,16.8-5.4,23.5c-1.8,2.2-4.6,3.8-6.5,6c-3.5,4.1-3.3,9.6-1.6,14.3s4.8,9.1,6.9,13.7
		c0.9,2,1.7,4.3,0.7,6.3c-0.7,1.4-2,2.4-3.1,3.6c-3.5,3.9-3.6,9.4-1.7,14s5.5,8.6,9,12.5c1.4,1.5,3.2,3.2,5.5,3.2
		c1.2-0.1,2.4-0.5,3.5-1.1c8.3-4.4,14.6-11.8,17.6-20.6c2.5-8.4,2-17.3-1.5-25.4c-3-7.1-7.9-13.9-7.9-21.3c0-5.9,3-11.6,3.6-17.5
		c0.7-7.2-3.6-18.6-12.3-21.7C833.5,258.7,828.7,261.1,826.1,264.6L826.1,264.6z M882.5,516.7c-10.2,0.5-19.8,4.9-28.7,9.9
		s-17.5,10.6-27.1,14.1 M876.2,540.7c-10.1,1-19.5,5.5-26.4,12.8c-2.5,2.6-4.6,5.6-7.2,8.1c-4,3.8-8.8,6.6-14.2,8 M878.3,558.9
		c-8.1,2.3-15.5,6.7-21.3,12.8c-1.6,1.7-3,3.5-4.5,5.2c-8.4,9-20.3,13.8-31.8,18.4"/>
	<path class="st20" d="M877.4,305.8c0.2,8.1,0.9,16.2,2.1,24.3c0.9,5.7,2.3,10.9,4.2,13.1c5.6,6.6-27.3,15.6-27.3,15.6l-19.4-15
		c0,0,15.4-14.2,8.2-28S877.4,305.8,877.4,305.8L877.4,305.8z"/>
	<path class="st13" d="M813.3,454.1H891c-2.2-5.9-3.6-10.1-3.6-10.1l-73.4,4.2L813.3,454.1z"/>
	<path class="st15" d="M808.3,452.7h83c-2.3-8.3,0-16.1,3.3-22c2.3-4.2,5.3-8,8.7-11.3l0.6-0.5l29-6.4l1.6-0.3
		c0,0,0.2-52.7-18.4-59.9s-29.8-17-29.8-17l-25.6,7.9l-18.9-9.5c-6.1,6.5-22.2,4-22.2,4c-26.3,3-26.3,22.9-26.3,22.9
		c2.4,14.7,4.7,29.5,7.1,44.2C802.9,420.7,805.6,436.7,808.3,452.7z"/>
	<path class="st13" d="M837,419.2c0,0-16.9-3.8-22.7-10.3 M922.3,399.6l-19.6,16.1c0.1,1.3,0.4,2.5,0.7,3.8l0.6-0.5l29-6.4
		L922.3,399.6z M869.2,447.1c0,0,4.3,2.4,10.9,5.6h11.3c-2.3-8.3,0-16.1,3.3-22l-19.9-6.5C881.5,430.6,869.2,447.1,869.2,447.1
		L869.2,447.1z"/>
	<path class="st15" d="M804.8,354.1l-11.7,6.3l-11.4,28.9c0,0-11.9,31.7-10.7,40.1c0,0-4.2,19.8,3.3,23.3l19.5,8.8
		c0.9,0.4,2,0,2.4-0.9c0.2-0.5,0.2-1.1-0.1-1.6c-2.8-5.3-5.8-13.5-1-18l-5.6-11.6l20.3-33.1l6.8-11.4L804.8,354.1z"/>
	<path class="st13" d="M830.7,412.6c1,4.1,4.4,10.5,15.7,12.8l12.4,10.1l13.2,6l5.4,2.4l2.3-16.4l-5.2-2.8l-6-3.3
		c0,0-13.6-24.6-35.1-14.2C831.3,408.2,830.2,410.4,830.7,412.6z"/>
	<path class="st20" d="M831.4,411.2c1,4.1,4.4,10.5,15.7,12.8l12.4,10.1l13.2,6l5.4,2.4l2.3-16.4l-5.2-2.8l-6-3.3
		c0,0-13.6-24.6-35.1-14.2C832,406.8,830.9,409,831.4,411.2L831.4,411.2z"/>
	<circle class="st13" cx="855.7" cy="297.1" r="30.1"/>
	<circle class="st20" cx="855.7" cy="296.4" r="30.1"/>
	<path class="st13" d="M874.3,360.6l-9-17.6c0,0,13.2-5.3,14.2-11.5s12.7,7.3,10.1,11.7S874.3,360.6,874.3,360.6z"/>
	<path class="st15" d="M874.3,359.3l-9-17.6c0,0,13.2-5.3,14.2-11.5s12.7,7.3,10.1,11.7S874.3,359.3,874.3,359.3z"/>
	<path class="st22" d="M800.3,404.6l50,67.2c0,0-18.4,10-43.8-7.9l-11-13l-31.3-52.7L800.3,404.6z"/>
	<path class="st20" d="M790.5,441.2l4.5-0.1c0,0,27.8-27,34.6-13.3s-17.3,26.4-17.3,26.4l-7.3,4l-9.6,2.8l-6.1-8.2L790.5,441.2z"/>
	<path class="st13" d="M797.2,455.8c0.4,1.5,0.8,3.3,0.1,4.7c-0.2,0.4-0.5,0.7-0.8,0.9c-0.3,0.1-0.7,0.2-1,0.1
		c-2.4-0.2-4.6-1.3-6.3-3.1c-1.6-1.8-3-3.8-4.1-5.9c-1.2-2.1-2.5-4.5-2.1-7c0.5-2.7,2.9-4.5,5.2-6c4.6-3,4.7,0.5,5.8,4.4
		L797.2,455.8z"/>
	<path class="st15" d="M796.5,455.8c0.4,1.5,0.8,3.3,0.1,4.7c-0.2,0.4-0.5,0.7-0.8,0.9c-0.3,0.1-0.7,0.2-1,0.1
		c-2.4-0.2-4.6-1.3-6.3-3.1c-1.6-1.8-3-3.8-4.1-5.9c-1.2-2.1-2.5-4.5-2.1-7c0.5-2.7,2.9-4.5,5.2-6c4.6-3,4.7,0.5,5.8,4.4
		L796.5,455.8z"/>
	<path class="st13" d="M809.7,396.3l2.3-3.9l-2,7.3L809.7,396.3L809.7,396.3z M872.7,440.1l5.4,2.4l2.3-16.4l-5.2-2.8
		C878.7,427.4,875.6,434.9,872.7,440.1L872.7,440.1z M894.2,421.1c0,0-17.3,1-24.7-3.7"/>
	<g class="st21">
		<path d="M892.1,432.1c2.3-4.2,5.3-8,8.7-11.3c0.8-0.5,1.7-1,2.6-1.4l27-5.5l1.6-0.3c0,0,0.2-52.7-18.4-59.9
			c-10.5-4-20.3-9.5-29.1-16.4l2-0.6c0,0,11.2,9.8,29.8,17s18.4,59.9,18.4,59.9h-2.8l-27.6,5.3l-1.6,1.5c-3.5,3.5-6.4,7.4-8.8,11.7
			c-3.6,6.8-4.5,14.7-2.3,22.1h-2.9C886.4,445.8,888.8,438,892.1,432.1z M818.4,339.1c0.5-0.1,0.9-0.1,1.3-0.2
			c1.9,0.3,3.8,0.4,5.7,0.5C823.1,339.5,820.7,339.4,818.4,339.1L818.4,339.1z M858,344.5l-17.1-8.6c0.4-0.3,0.7-0.6,1-0.9l17.8,9
			L858,344.5z"/>
	</g>
	<path class="st15" d="M923,398.2l11.4,14l2.3,38c0,0,3,19.4-19.1,14.7s-47.8-19.1-47.8-19.1s12.4-16.6,5.6-22.9l31.7,10.3
		c0,0,5.4-1.2,1.2-5.8s-4.9-13.1-4.9-13.1L923,398.2z"/>
	<path class="st13" d="M928.2,438.3l6.3,7.2C931.2,444.5,928.7,441.7,928.2,438.3z M917.4,437.1l9.8,12.6l-4.9,1.2L917.4,437.1
		L917.4,437.1z M819.8,282.6c-1.1-2.6-0.3-5.7,1-8.2s3.1-4.8,4-7.5c1.5-4,1-8.5,2.6-12.4c2.8-6.9,10.6-10,17.7-12.3
		c2.1-0.7,4.3-1.4,6.4-0.9c2.8,0.7,4.7,3.3,7,5c9.6,7.1,25.2-0.7,34.4,6.8c3.5,2.9,5.3,7.5,5.8,12.1s0,9.1,0,13.7
		c-0.2,8,1.3,16.8,7.3,22.1c1.8,1.6,3.9,2.8,5.7,4.5s3.2,4,2.8,6.4c-0.2,1.1-0.6,2.2-1,3.2c-1.2,4.2,0.6,8.6,2.8,12.4
		c6.5,11.2,17.9,20.4,30.8,20.7c-0.9,6.5-7.7,10.3-13.7,13c-7.7,3.4-15.7,6.8-24.1,6.3s-17.1-5.8-18.6-14c-0.5-2.8-0.4-6.3-2.9-7.8
		c-1.5-0.9-3.4-0.7-5-1.4c-2.3-1-3.5-3.5-4.2-5.9c-1.6-4.9-2.4-10.1-2.5-15.2c-0.1-6.1,0.7-12.8-2.8-17.9c-3.2-4.7-8.9-7-12.7-11.3
		c-3.4-4-7.2-8.8-12.8-9.5C840.4,283.3,824.4,293.8,819.8,282.6L819.8,282.6z"/>
	<path class="st16" d="M819.8,281.2c-1.1-2.6-0.3-5.7,1-8.2s3.1-4.8,4-7.5c1.5-4,1-8.5,2.6-12.4c2.8-6.9,10.6-10,17.7-12.3
		c2.1-0.7,4.3-1.4,6.4-0.9c2.8,0.7,4.7,3.3,7,5c9.6,7.1,25.2-0.7,34.4,6.8c3.5,2.9,5.3,7.5,5.8,12.1s0,9.1,0,13.7
		c-0.2,8,1.3,16.8,7.3,22.1c1.8,1.6,3.9,2.8,5.7,4.5s3.2,4,2.8,6.4c-0.3,1.1-0.6,2.2-1,3.2c-1.2,4.2,0.6,8.6,2.8,12.4
		c6.5,11.2,17.9,20.4,30.8,20.7c-0.9,6.5-7.7,10.3-13.7,13c-7.7,3.4-15.7,6.8-24.1,6.3s-17.1-5.8-18.6-14c-0.5-2.8-0.4-6.3-2.9-7.8
		c-1.5-0.9-3.4-0.7-5-1.4c-2.3-1-3.5-3.5-4.2-5.9c-1.6-4.9-2.4-10.1-2.5-15.2c-0.1-6.1,0.7-12.8-2.8-17.9c-3.2-4.7-8.9-7-12.7-11.3
		c-3.4-4-7.2-8.8-12.8-9.5C840.4,281.9,824.4,292.4,819.8,281.2L819.8,281.2z"/>
	<path class="st13" d="M841.1,358.5l17.2-14c0,0-11.8-6.4-13.2-11.9s-10.8,2.6-9.9,7.5S841.1,358.5,841.1,358.5L841.1,358.5z"/>
	<path class="st15" d="M841.8,356.4l17.2-14c0,0-11.8-6.4-13.2-11.9s-10.8,2.6-9.9,7.5S841.8,356.4,841.8,356.4L841.8,356.4z"/>
	<circle class="st13" cx="859.7" cy="354.1" r="1.4"/>
	<circle class="st13" cx="859.7" cy="361.7" r="1.4"/>
	<circle class="st13" cx="859.7" cy="369.3" r="1.4"/>
	<g class="st21">
		<path d="M826.7,261.8c1.4-3.8,1.1-7.9,2.3-11.7c-0.6,0.8-1.1,1.7-1.5,2.7c-1.6,3.9-1.1,8.4-2.6,12.4c0,0.1-0.1,0.1-0.1,0.2
			C825.6,264.2,826.2,263,826.7,261.8z M935.5,356c-7.7,3.4-15.7,6.8-24.1,6.3s-17.1-5.8-18.6-14c-0.5-2.8-0.4-6.3-2.9-7.8
			c-1.5-0.9-3.4-0.7-5-1.4c-2.3-1-3.5-3.5-4.2-5.9c-1.6-4.9-2.4-10.1-2.5-15.3c-0.1-6.1,0.7-12.8-2.8-17.9c-3.2-4.7-8.9-7-12.7-11.3
			c-3.4-4-7.2-8.8-12.8-9.5c-7.7-1-23.8,9.5-28.3-1.7c-0.7-2.1-0.6-4.4,0.3-6.5c-0.3,0.6-0.7,1.1-0.9,1.7c-1.3,2.5-2.1,5.6-1,8.2
			c4.6,11.2,20.7,0.7,28.4,1.7c5.6,0.8,9.3,5.6,12.8,9.5c3.7,4.3,9.4,6.7,12.6,11.4c3.5,5,2.7,11.7,2.8,17.9
			c0.1,5.2,0.9,10.3,2.5,15.3c0.8,2.4,1.9,5,4.2,5.9c1.6,0.7,3.5,0.5,5,1.4c2.5,1.5,2.4,5,2.9,7.8c1.5,8.3,10.2,13.6,18.6,14.1
			s16.5-2.9,24.1-6.3c5.5-2.5,11.7-5.9,13.3-11.4C944.5,351.6,939.8,354.1,935.5,356z"/>
	</g>
	<path class="st11" d="M957,508"/>
	<path d="M974,635"/>
	<path class="st15" d="M1005,407"/>
</g>
<g id="Layer_2">
</g>
</svg>
