<?xml version="1.0" encoding="utf-8"?>
<!-- Generator: Adobe Illustrator 23.0.3, SVG Export Plug-In . SVG Version: 6.00 Build 0)  -->
<svg version="1.1" id="Layer_1" xmlns="http://www.w3.org/2000/svg" xmlns:xlink="http://www.w3.org/1999/xlink" x="0px" y="0px"
	 viewBox="0 0 1077.9 813" style="enable-background:new 0 0 1077.9 813;" xml:space="preserve">
<style type="text/css">
	.st0{opacity:0.1;fill:#00C7FA;enable-background:new    ;}
	.st1{fill:#FFFFFF;}
	.st2{opacity:0.1;}
	.st3{opacity:0.2;}
	.st4{fill:#00C7FA;}
	.st5{fill:url(#SVGID_1_);}
	.st6{fill:#CC818C;}
	.st7{fill:#444053;}
	.st8{opacity:0.1;enable-background:new    ;}
	.st9{opacity:5.000000e-02;enable-background:new    ;}
	.st10{fill:#FF748F;}
	.st11{fill:#575988;}
	.st12{fill:#DCE6F2;}
	.st13{opacity:0.5;fill:#575988;enable-background:new    ;}
	.st14{fill:#67647E;}
	.st15{fill:#585268;}
	.st16{fill:#E4AAB4;}
	.st17{fill:#FFD037;}
	.st18{fill:#65617D;}
	.st19{fill:#9D9CB5;}
	.st20{fill:url(#SVGID_2_);}
	.st21{fill:#2D293D;}
	.st22{opacity:5.000000e-02;}
	.st23{fill:#FFCDD3;}
	.st24{fill:#656691;}
	.st25{fill:#A8A8A8;}
	.st26{opacity:0.2;enable-background:new    ;}
</style>
<path class="st0" d="M663.8,111.3c-46.3,39.3-106.2,36.7-158.8,16.3S404.2,70.8,352.9,45C310,23.3,264.9,9.1,219.3,2.8
	c-65.3-9.1-138.2,2-183.7,65.4c-50.7,70.7-46.8,198.2,8,263c27.9,33,64.4,49.2,96.2,75s61.3,68.6,58.6,118.3
	c-2.5,46-31.7,81.4-61.9,103.5c-23.3,17.1-52.1,35.8-54.9,71.3c-2.7,34.3,21.4,61.2,44.5,76.5c75.3,49.9,168,49.4,243-1.3
	c26.7-18.1,51.3-42.2,79.4-56.2c73.6-37,154.8,0.2,232.8,13.9c66,11.5,133.7,5.5,198-17.5c38.6-13.8,77.4-35,104.5-74.4
	c19.6-28.4,31.8-64.3,43.2-99.8c12.2-37.8,23.9-76,35.2-114.4c6.8-23,13.4-46.5,15.2-71.2c3.2-44.7-10.2-88.9-28.3-126.6
	C1006,139,933.5,76,854.9,60s-161.7,15.2-222.6,83.6"/>
<ellipse class="st0" cx="489.6" cy="532.5" rx="227" ry="10.4"/>
<path class="st1" d="M481.9,489.8c-113.5,0-205.8-92.3-205.8-205.8S368.4,78.2,481.9,78.2S687.7,170.5,687.7,284
	S595.4,489.8,481.9,489.8z M481.9,80.2c-112.4,0-203.8,91.4-203.8,203.8s91.4,203.8,203.8,203.8S685.7,396.3,685.7,284
	S594.3,80.2,481.9,80.2z"/>
<path class="st1" d="M481.9,443.6c-88,0-159.6-71.6-159.6-159.6s71.6-159.6,159.6-159.6S641.5,196,641.5,284
	S569.9,443.6,481.9,443.6L481.9,443.6z M481.9,126.4c-86.9,0-157.6,70.7-157.6,157.6S395,441.6,481.9,441.6S639.5,370.9,639.5,284
	S568.8,126.4,481.9,126.4L481.9,126.4z"/>
<path class="st1" d="M481.9,394c-60.8,0-110-49.2-110-110s49.2-110,110-110s110,49.2,110,110C591.9,344.7,542.7,393.9,481.9,394z
	 M481.9,176c-59.6,0-108,48.4-108,108s48.4,108,108,108s108-48.4,108-108C589.9,224.4,541.6,176,481.9,176z"/>
<ellipse class="st0" cx="980" cy="403.2" rx="14.3" ry="4.7"/>
<g class="st2">
	<path d="M325.9,269.7H69.5c-7.4,0-13.4,6-13.4,13.4v162c0,7.4,6,13.4,13.4,13.4h201.1c0,0,5.2,27.7-11.9,30.6
		c0,0,38.3,2.8,31.6-30.6h35.5c7.4,0,13.4-6,13.4-13.4v-162C339.2,275.7,333.3,269.7,325.9,269.7L325.9,269.7z"/>
	<g class="st3">
		<path d="M99.5,312.7h196.4c3.1,0,5.7,2.5,5.7,5.7v1.3c0,3.1-2.5,5.7-5.7,5.7H99.5c-3.1,0-5.7-2.5-5.7-5.7v-1.3
			C93.8,315.3,96.4,312.7,99.5,312.7z"/>
		<path d="M99.5,369.3h196.4c3.1,0,5.7,2.5,5.7,5.7v1.3c0,3.1-2.5,5.7-5.7,5.7H99.5c-3.1,0-5.7-2.5-5.7-5.7V375
			C93.8,371.8,96.4,369.3,99.5,369.3z"/>
		<path d="M99.5,397.6h162.8c3.1,0,5.7,2.5,5.7,5.7v1.3c0,3.1-2.5,5.7-5.7,5.7H99.5c-3.1,0-5.7-2.5-5.7-5.7v-1.3
			C93.8,400.1,96.4,397.6,99.5,397.6z"/>
		<path d="M99.5,341h78.7c3.1,0,5.7,2.5,5.7,5.7v1.3c0,3.1-2.5,5.7-5.7,5.7H99.5c-3.1,0-5.7-2.5-5.7-5.7v-1.3
			C93.8,343.5,96.4,341,99.5,341z"/>
	</g>
</g>
<path class="st1" d="M328.1,268.6H71.7c-7.4,0-13.4,6-13.4,13.4v162c0,7.4,6,13.4,13.4,13.4h201.1c0,0,5.2,27.7-11.9,30.6
	c0,0,38.3,2.8,31.6-30.6h35.5c7.4,0,13.4-6,13.4-13.4V282C341.5,274.6,335.5,268.6,328.1,268.6z"/>
<g class="st3">
	<path class="st4" d="M101.7,311.6h196.4c3.1,0,5.7,2.5,5.7,5.7v1.3c0,3.1-2.5,5.7-5.7,5.7H101.7c-3.1,0-5.7-2.5-5.7-5.7v-1.3
		C96.1,314.1,98.6,311.6,101.7,311.6z"/>
	<path class="st4" d="M101.7,368.2h196.4c3.1,0,5.7,2.5,5.7,5.7v1.3c0,3.1-2.5,5.7-5.7,5.7H101.7c-3.1,0-5.7-2.5-5.7-5.7v-1.3
		C96.1,370.7,98.6,368.2,101.7,368.2z"/>
	<path class="st4" d="M101.7,396.5h162.8c3.1,0,5.7,2.5,5.7,5.7v1.3c0,3.1-2.5,5.7-5.7,5.7H101.7c-3.1,0-5.7-2.5-5.7-5.7v-1.3
		C96.1,399,98.6,396.5,101.7,396.5z"/>
	<path class="st4" d="M101.7,339.9h78.7c3.1,0,5.7,2.5,5.7,5.7v1.3c0,3.1-2.5,5.7-5.7,5.7h-78.7c-3.1,0-5.7-2.5-5.7-5.7v-1.3
		C96.1,342.4,98.6,339.9,101.7,339.9z"/>
</g>
<path class="st4" d="M521.3,764c0,0-38-2.3-33.6,24.4c0,0-0.9,4.7,3.4,6.8c0,0,0.1-2,3.9-1.3c1.4,0.2,2.8,0.3,4.1,0.2
	c1.9-0.1,3.6-0.9,5.1-2.1c0,0,10.7-4.4,14.9-21.9c0,0,3.1-3.8,3-4.8l-6.4,2.7c0,0,2.2,4.6,0.5,8.5c0,0-0.2-8.3-1.4-8.1
	c-0.3,0-3.3,1.6-3.3,1.6s3.8,8.1,0.9,13.9c0,0,1.1-9.9-2.1-13.3l-4.5,2.6c0,0,4.4,8.3,1.4,15.1c0,0,0.8-10.4-2.4-14.5l-4.1,3.2
	c0,0,4.1,8.2,1.6,13.8c0,0-0.3-12.1-2.5-13c0,0-3.6,3.2-4.1,4.5c0,0,2.8,6,1.1,9.1c0,0-1.1-8.1-2-8.1c0,0-3.6,5.4-3.9,9
	c0.2-3.4,1.2-6.7,3.1-9.5c-2.1,0.4-4,1.4-5.5,2.8c0,0,0.5-3.8,6.3-4.1c0,0,3-4.1,3.7-4.3c0,0-5.8-0.5-9.3,1.1c0,0,3.1-3.6,10.3-2
	l4-3.3c0,0-7.6-1-10.8,0.1c0,0,3.7-3.2,11.9-0.9l4.4-2.6c0,0-6.5-1.4-10.3-0.9c0,0,4.1-2.2,11.6,0.2l3.2-1.4c0,0-4.7-0.9-6.1-1.1
	s-1.5-0.5-1.5-0.5c3-0.5,6.1-0.2,8.9,1C514.7,766.9,521.4,764.4,521.3,764L521.3,764z"/>
<ellipse class="st0" cx="495.1" cy="797.5" rx="26.9" ry="4.5"/>
<path class="st4" d="M819.4,731.4c0,0-38-2.3-33.6,24.4c0,0-0.9,4.7,3.4,6.8c0,0,0.1-2,3.9-1.3c1.4,0.2,2.8,0.3,4.1,0.2
	c1.9-0.1,3.6-0.9,5-2.1c0,0,10.7-4.4,14.8-21.9c0,0,3.1-3.8,3-4.8l-6.5,2.8c0,0,2.2,4.6,0.5,8.5c0,0-0.2-8.3-1.4-8.1
	c-0.3,0-3.3,1.6-3.3,1.6s3.8,8.1,0.9,13.9c0,0,1.1-9.9-2.1-13.3l-4.5,2.6c0,0,4.4,8.3,1.4,15.1c0,0,0.8-10.4-2.4-14.5l-4.1,3.2
	c0,0,4.1,8.2,1.6,13.9c0,0-0.3-12.2-2.5-13.1c0,0-3.6,3.2-4.1,4.5c0,0,2.8,6,1.1,9.1c0,0-1.1-8.1-2-8.1c0,0-3.6,5.4-3.9,9
	c0.2-3.4,1.2-6.7,3.1-9.5c-2.1,0.4-4,1.4-5.5,2.8c0,0,0.6-3.8,6.3-4.1c0,0,3-4.1,3.7-4.3c0,0-5.8-0.5-9.3,1.1c0,0,3.1-3.6,10.3-2
	l4-3.3c0,0-7.6-1-10.8,0.1c0,0,3.7-3.2,11.9-0.9l4.4-2.6c0,0-6.5-1.4-10.3-0.9c0,0,4.1-2.2,11.6,0.2l3.2-1.4c0,0-4.7-0.9-6.1-1.1
	s-1.5-0.5-1.5-0.5c3-0.5,6.1-0.2,8.9,1C812.7,734.3,819.5,731.8,819.4,731.4L819.4,731.4z"/>
<ellipse class="st0" cx="793.2" cy="764.9" rx="26.9" ry="4.5"/>
<ellipse class="st0" cx="848.1" cy="436.8" rx="77.5" ry="12.7"/>
<linearGradient id="SVGID_1_" gradientUnits="userSpaceOnUse" x1="975.7672" y1="331.1552" x2="975.7672" y2="728.0974" gradientTransform="matrix(1 0 0 -1 -138.09 772.51)">
	<stop  offset="0" style="stop-color:#808080;stop-opacity:0.25"/>
	<stop  offset="0.54" style="stop-color:#808080;stop-opacity:0.12"/>
	<stop  offset="1" style="stop-color:#808080;stop-opacity:0.1"/>
</linearGradient>
<path class="st5" d="M938.4,186c3.2-10.6,0-21.3,0-21.3v-10c0,0,3.6-19.6-12.5-32.2l-10.7-9.4c0,0-6-5.1-7.7-5.5
	c-0.3-0.1-0.7-0.1-1-0.1l-0.3-0.2c-0.9-1.6-1.7-3.2-2.3-4.9c1.4,0.2,2.8-0.3,3.8-1.3c0.4-0.4,0.7-1,0.9-1.5c0.6-1.4,0.7-3.1,1.3-4.6
	c0.5-1.2,1.1-2.3,2-3.3c-0.1,0.2-0.2,0.4-0.3,0.5c1.5-1.9,3.5-3.5,4.9-5.5c0.3-0.4,0.5-0.8,0.8-1.2l-0.2,0.3c2-3.2,2.6-7,3.1-10.7
	c0.3-1.3,0.3-2.6,0.1-3.8c-0.3-0.8-0.6-1.7-1.1-2.4c-2.3-4.8-2.3-10.8-6-14.6c-2.8-2.9-7-3.8-11-4.2s-8.2-0.8-11.6-2.9
	c-1-0.7-2-1.3-3.1-1.7c-1.2-0.4-2.5,0.1-3.1,1.2c-0.1,0.3-0.2,0.6-0.4,0.8c-0.4,0.2-0.8,0.2-1.2,0.1l-5.3-1.4l0.1,0.3h-0.1l0.2,0.8
	c0.2,0,0.3,0,0.5,0.3l-0.8,1.3c-1.6,0-3.3-0.4-4.8-1c0,0.1,0,0.2,0,0.3h-0.1c-0.1,1.5,1.6,2.5,2.1,3.9c0.2,0.6,0.2,1.3,0,1.9
	c-0.2,0.6-0.6,1.1-1,1.5c-1.9,1.9-4.3,1.5-6.5,2.7c-0.4,0.2-0.7,0.5-0.8,0.9c-0.1,0.1-0.1,0.3-0.1,0.5c0.1,0.2,0.2,0.4,0.4,0.6
	c0.6,0.5,1.3,0.9,2.1,1.3l-0.6,0.6c-9.2,9.4-9.1,24.4,0.3,33.6c2.3,2.2,4.9,4,7.9,5.1c0.1,0.4,0.1,0.8,0.2,1.3v0.1l0.1,0.6l-7.2,3
	c-2.2,0-4.2-1.3-5.1-3.3c-1.7-3.4-7.5,0-7.5,0s-17.9-1.4-24.6,1.9c0,0-10.7-4.5-12.2-4.8s-3.8-1.5-4.8-1.2s-2.4-2-3.2-1.8
	s-1-1.5-3.5-2.1s-3.3,0.1-6-2.6s-24.7-13.3-24.7-13.3l-9.9-8.1l-10.5-8.4l-0.2,0.3c-0.1-0.3-0.1-0.5-0.2-0.8
	c-1-4.2-2.3-8.3-3.9-12.3c-0.7-1.6-1-3.7-1.9-2.6c-0.6,0.7-1.5-0.8-3-1.7c-1.1-0.8-2.7-0.5-3.5,0.6c-0.1,0.1-0.2,0.3-0.3,0.5
	c-8.2,12.9-11.2,13.8-6.4,18.5c4.2,4.2,7,7.9,10.5,9l0.4,0.1c-0.1,0-0.2,0-0.2,0l20,23.9c0,0,14.5,12.6,24.4,16.6s9.2,5.2,9.2,5.2
	s30.1,15.3,34.8,15s3.8,31.3,1.8,36.4s-5.1,41.9-5.1,41.9s-3,7.8,0.2,13.2c0,0,0.7,10.3,0.1,12.8c-2.8,4.2-6.7,11.4-7.3,18.8
	c0,0.4-0.1,0.8-0.1,1.1c-0.2,0.2-0.4,0.4-0.7,0.6c0,0,0.3-0.1,0.7-0.2c-0.3,3.1-1,6.1-2,9c-1.6,4.1-2.4,8.6-2.5,13v23.8l-2,14.7
	c0,0-2.4,11.2,0,13.8c1,1.3,1.5,2.9,1.3,4.6c-0.1,1.9,0.4,3.8,1.5,5.4c0.8,0.9,1.2,2.2,1,3.4c-0.8,2.6,1.2,30.1,1.2,30.1
	s-0.6,7.6-1.4,8s1.3,8.7,1.3,8.7s-8.1,6.8-6.1,10.4l2.1,3.2l-0.5,0.5l-0.3,0.3c-0.6-0.4-1.4-0.5-2.1-0.4c-2.6,2.6-5.3,5.1-8.2,7.3
	c-3.7,2.6-13.7,6.5-13.7,6.5l-7.9,0.6h-0.2c0,0-3.8-0.4-1.7,5.5s21,4,21,4l11-1.7c0,0,19.7,0.1,25.3-1.1c2.4-0.5,2.9-1.8,2.8-3.1
	l-0.1-0.1c-0.3-1.2-0.8-2.3-1.6-3.3c0-0.1-0.1-0.1-0.1-0.2l0.4-4c8.3-4.8-2.4-14.3-2.4-14.3s3.7-8,5.5-10.6s1.9-40.7,1.9-40.7
	s1-13.8-1.6-17c-0.1-2.1,1-4.1,2.8-5.2c1.9-1.3,7.5-18.8,11.9-33.3l2.8,17.1c0,0-0.6,8.2,1.2,10.6c0.7,0.9,0.9,2.1,0.7,3.2
	c-0.4,2.3-0.3,4.7,0.4,6.9c0.2,1,0.7,1.8,1.5,2.5c1.6,0.8,1.7,3.6,2.3,4.3s4.3-0.9,4.5,1.3c0.1,1.9,0.1,3.9,0,5.8l1.2,35.5
	c0,0-2,3-2.4,10.8c-0.2,3.4-0.8,5.3-1.5,6.4c-0.7,1.2-0.6,2.7,0.3,3.8l0.3,0.4l-1.5,1.1c-1.2,0.9-1.6,2.6-0.9,4
	c-1,0.9-1.3,2.2-0.9,3.5c0.1,0.2,0.2,0.4,0.3,0.6c-1.1,0.2-2.2,0.7-3,1.5c-1.5,2-3.3,3.8-5.3,5.3c-3,2.3-5.8,4.7-8.5,7.2
	c-1.3,1.7-3,3.1-4.9,4c-0.5,0.2-1,0.3-1.5,0.4c-4,0.8-2.7,5,0.5,5.6s13.9,3.9,22.2,2c0,0,2.5,1,6.1-0.8s11.8-4,11.8-4s4.5,0,5.1-1.8
	c0.2-0.6,0.2-1.2,0.3-1.8l0.1-0.1l-0.1-0.1c0-1.3-0.1-2.7-0.3-4c-0.1-0.7-0.2-1.3-0.4-1.8c-0.4-1.5-1.1-3.4-1.4-4.3
	c0.1-0.1,0.1-0.1,0.1-0.2c1.7-2.9-1.1-10-1.1-10c0.9-1.5,2.1-2.8,3.4-4c1.6-1.2,5.8-32.3,5.8-32.3s-0.2-8,2-11.6s-3-25.4-3-25.4
	s-2.2-5-1.4-6.8s-0.8-8.4-0.8-8.4v-7.9c0-0.9-0.2-1.9-0.5-2.8c-0.6-1.9-1.5-5.4-0.5-8c1.4-3.6,4.6-25.8,4.6-25.8s-2.5-9.8,1.2-17.5
	c0.3-0.6,0.6-1.2,1-1.8c2.7-4.3,1.9-11.9,0.6-18c-0.2-1-0.4-1.9-0.7-2.7c-0.1-0.4-0.2-0.7-0.3-1.1l0.4-0.2c0,0,0-0.6,0.1-1.6
	c3-0.6,5.6-2.4,7.3-5c0,0,9.2-10.3,17.3-14.7s8.7-10.6,8.7-10.6c-1.2-2.1,2.2-10.6,2.2-10.6L938.4,186z M911.9,199.8l-8.7,10.1
	c0,0,0,0,0-0.1c-2.3-3.1,2.1-10.2,2.1-10.2l7.2-16.1c-0.1,2.1-0.3,3.9-0.9,4.8c-2,2.7,3.6,7.2,3.6,7.2
	C912.2,195.4,911.9,199.8,911.9,199.8L911.9,199.8z"/>
<path class="st6" d="M758.7,67.5l-4.7,9.2c-1.5-0.1-3-0.4-4.4-0.9c-4.6-1.4-8.4-4.7-10.4-9c-4.2-9.4,2.8-15.4,6-17.2s6.3-3.8,8.8,2
	c1.5,4,2.8,8.1,3.9,12.2C758.3,66,758.7,67.5,758.7,67.5z M909.6,115.5l-7.6,11.3c0,0-35.9,17.1-29-3c3-8.8,3.4-15.3,2.8-19.8v-0.1
	c-0.7-5.6-2.8-8-2.8-8s35-17.9,29.8-5.7c-1.1,2.5-1.5,5.3-1.2,8.1c0.4,4,1.7,7.8,3.8,11.2C906.5,111.6,908,113.6,909.6,115.5
	L909.6,115.5z"/>
<path class="st7" d="M898.7,339.3c0,0,5.2,21.6,3,25.2s-2,11.5-2,11.5s-4.2,31-5.8,32.1c-1.3,1.2-2.4,2.5-3.4,4c0,0,2.8,7,1.1,9.9
	c-0.3,0.4-0.7,0.8-1.1,1c-2.7,1.1-12.5-3.9-18.1-6.9c-0.7-0.4-1.2-1-1.5-1.8c-0.4-1.2-0.1-2.6,0.9-3.4c-0.7-1.4-0.3-3,0.9-4l1.5-1.1
	l-0.3-0.4c-0.9-1.1-1-2.6-0.3-3.8c0.6-1.1,1.3-3,1.4-6.3c0.4-7.7,2.4-10.7,2.4-10.7l-1.2-35.3c0.1-1.9,0.1-3.8,0-5.8
	c-0.2-2.2-3.9-0.7-4.5-1.3s-0.7-3.4-2.3-4.2c-0.7-0.6-1.2-1.5-1.4-2.4c-0.7-2.2-0.8-4.6-0.4-6.9c0.2-1.1-0.1-2.3-0.7-3.2
	c-1.8-2.4-1.2-10.5-1.2-10.5l-2.7-17c-4.4,14.4-9.9,31.8-11.7,33.1c-1.8,1.1-2.9,3.1-2.8,5.2c2.6,3.2,1.6,16.9,1.6,16.9
	s0,37.9-1.9,40.5s-5.5,10.5-5.5,10.5s10.6,9.5,2.3,14.2l-0.1,0c-8.5,4.8-26.2-8.5-26.2-8.5l1.8-1.8l0.5-0.5l-2-3.2
	c-2-3.6,6-10.3,6-10.3s-2.1-8.3-1.3-8.7s1.3-7.9,1.3-7.9s-2-27.4-1.2-29.9c0.2-1.2-0.1-2.5-0.9-3.4c-1.1-1.6-1.6-3.4-1.5-5.3
	c0.2-1.6-0.3-3.3-1.3-4.6c-2.4-2.6,0-13.7,0-13.7l2-14.7v-23.4c0-4.5,0.8-8.9,2.4-13.1c1.2-3.4,1.9-7,2.2-10.6
	c0.7-7.5,4.7-14.8,7.4-19c1.4-2.2,2.5-3.5,2.5-3.5l63.5-2.5c0,0,1,2.8,2,6.8c0.2,0.9,0.4,1.8,0.6,2.7c1.3,6.1,2.1,13.6-0.6,17.9
	c-0.4,0.6-0.7,1.2-1,1.8c-3.6,7.7-1.2,17.4-1.2,17.4s-3.2,22-4.6,25.6c-1,2.5-0.1,6.1,0.5,7.9c0.3,0.9,0.4,1.8,0.5,2.7v7.8
	c0,0,1.6,6.5,0.8,8.3S898.7,339.3,898.7,339.3L898.7,339.3z"/>
<path class="st8" d="M901.7,261.5c-0.4,0.6-0.7,1.2-1,1.8l-3.6-0.2c0.3-1.8-2.1-19.1-2.1-19.1l7.2-0.4
	C903.5,249.7,904.3,257.3,901.7,261.5z"/>
<path class="st7" d="M902.3,261c-0.4,0.6-0.7,1.2-1,1.8l-3.6-0.2c0.3-1.8-2.1-19.1-2.1-19.1l7.2-0.4
	C904.1,249.1,904.9,256.7,902.3,261L902.3,261z"/>
<path class="st9" d="M902.3,261c-0.4,0.6-0.7,1.2-1,1.8l-3.6-0.2c0.3-1.8-2.1-19.1-2.1-19.1l7.2-0.4
	C904.1,249.1,904.9,256.7,902.3,261L902.3,261z"/>
<path class="st8" d="M891.7,422c-0.3,0.4-0.7,0.8-1.1,1c-2.7,1.1-12.5-3.9-18.1-6.9c-0.7-0.4-1.2-1-1.5-1.8c3.2-0.6,5.3,3,5.3,3
	c2.2-1.4,5.1-0.7,6.5,1.5c0,0,0,0.1,0.1,0.1c2.7,4,8.6,2.3,8.6,2.3S891.6,421.5,891.7,422L891.7,422z"/>
<path class="st10" d="M893.4,434.2c-0.6,1.8-5.1,1.8-5.1,1.8s-8,2.3-11.6,4.1s-6,0.8-6,0.8c-8.2,1.9-18.7-1.4-21.9-2
	s-4.4-4.8-0.5-5.5c0.5-0.1,1-0.3,1.5-0.5c2-0.9,3.6-2.3,4.9-4c2.7-2.5,5.4-5,8.3-7.2c2-1.5,3.8-3.3,5.2-5.3c4.7-4.1,8,1.5,8,1.5
	c2.2-1.4,5.1-0.7,6.5,1.5c0,0,0,0.1,0.1,0.1c2.7,4,8.6,2.3,8.6,2.3s1,2.7,1.5,4.6c0.1,0.5,0.3,1.1,0.4,1.8
	C893.8,430.2,893.8,432.2,893.4,434.2L893.4,434.2z"/>
<circle class="st11" cx="879.8" cy="421.1" r="0.5"/>
<circle class="st11" cx="875.1" cy="425.4" r="0.5"/>
<circle class="st11" cx="870.3" cy="429.4" r="0.5"/>
<circle class="st11" cx="872.8" cy="427.6" r="0.5"/>
<circle class="st11" cx="877.5" cy="423.1" r="0.5"/>
<path class="st12" d="M893.4,434.2c-0.6,1.8-5.1,1.8-5.1,1.8s-8,2.3-11.6,4.1s-6,0.8-6,0.8c-8.2,1.9-18.7-1.4-21.9-2
	s-4.4-4.8-0.5-5.5c0.5-0.1,1-0.3,1.5-0.5c3.5,1.2,7.1,1.9,10.7,2c8.1,0.3,14.5,0,14.5,0l8.2-2.6c1.5-0.9,3.3-1.6,5.1-1.8
	c1.8-0.4,3.5-1.1,5-2.2C893.7,430.2,893.7,432.2,893.4,434.2L893.4,434.2z"/>
<path class="st13" d="M873,439.3c-0.5,0-0.9,0-1.4-0.1l0.1-0.6c1.7,0.3,3.4,0,4.9-0.7c0.7-0.3,1.5-0.6,2.2-1s1.7-0.8,2.6-1.1
	l0.8-0.3c0.5-0.1,0.9-0.3,1.3-0.5c0.3-0.1,0.5-0.2,0.7-0.3c0.6-0.3,1.2-0.5,1.8-0.7c0.3-0.1,0.7-0.1,1-0.1c0.3,0,0.6-0.1,0.9-0.1
	c0.6-0.1,1.2-0.4,1.7-0.6c0.6-0.3,1.2-0.5,1.8-0.7l0.4-0.1c0.5,0,0.9-0.2,1.3-0.5l0.4,0.4c-0.5,0.4-1,0.6-1.6,0.6l-0.4,0.1
	c-0.6,0.1-1.2,0.4-1.7,0.6c-0.6,0.3-1.2,0.5-1.8,0.7c-0.3,0.1-0.7,0.1-1,0.1c-0.3,0-0.6,0.1-0.9,0.1c-0.6,0.2-1.2,0.4-1.7,0.7
	l-0.8,0.3c-0.5,0.2-0.9,0.4-1.4,0.5l-0.8,0.3c-0.9,0.3-1.7,0.7-2.5,1.1s-1.5,0.7-2.2,1C875.7,438.9,874.4,439.2,873,439.3L873,439.3
	z"/>
<path class="st8" d="M874.9,340.7c0,0,4.1-6,11.2-5.9s10.1-0.8,10.1-0.8s-4.5,2.7-7.6,3S874.9,340.7,874.9,340.7L874.9,340.7z
	 M877.3,342.1c0,0,3.7-2.6,5.8-2.7s4-0.3,4-0.3c-1,0.7-2.1,1.2-3.3,1.6C882.1,341.2,877.3,342.1,877.3,342.1L877.3,342.1z
	 M878.1,343.9c0,0,5.6,0.5,5.7,1.9 M825.9,260.3c0.3,0,5.3-5.2,5.6-7.3c0.3-1.3,1.1-2.5,2.2-3.2c0,0,3.2,1.3,0.3,5.2
	C831.2,259,825.9,260.3,825.9,260.3L825.9,260.3z M902.8,90.2c-1.1,2.7-2.2,2.9-1.9,5.5c-1.3,1.4-2.9,2.6-4.5,3.6
	c-3.5,2.1-7.4,6.2-11.8,6.2c-3,0-5.9-0.5-8.6-1.6c-0.7-5.6-2.8-8-2.8-8S907.9,78,902.8,90.2z"/>
<path class="st6" d="M908.1,80.7c0,13.1-10.6,23.7-23.7,23.7c-13.1,0-23.6-10.6-23.6-23.7S871.4,57,884.5,57
	C897.5,57,908.1,67.6,908.1,80.7C908.1,80.6,908.1,80.7,908.1,80.7z"/>
<path class="st8" d="M909.6,115.5l-7.6,11.3c0,0-35.9,17.1-29-3c3-8.8,3.4-15.3,2.8-19.8h0.1c0.4,1.5,0.7,3,0.7,4.6
	c0.1,3.1,0.2,7,7.8,8.3c12.8,2.2,19.6-5.8,20.8-7.4C906.5,111.6,908,113.6,909.6,115.5z M758.7,67.5l-4.7,9.2
	c-1.5-0.1-3-0.4-4.4-0.9l-0.4-0.5c1.9,0.7,8.5-11.6,8.5-11.6l0.2,0.2C758.3,66,758.7,67.5,758.7,67.5L758.7,67.5z M902.2,240.3
	c-15.3,6.6-68.3,1-68.3,1c0.2-0.6,0.3-1.1,0.3-1.7c1.4-2.2,2.5-3.5,2.5-3.5l63.5-2.5C900.1,233.6,901.2,236.4,902.2,240.3z"/>
<path class="st14" d="M875.9,104.6l-7.1,3c-2.2,0-4.1-1.3-5.1-3.3c-1.6-3.4-7.4,0-7.4,0s-17.7-1.3-24.3,1.9c0,0-10.6-4.5-12-4.8
	s-3.7-1.5-4.8-1.2s-2.4-1.9-3.1-1.8s-1-1.5-3.4-2.1s-3.3,0.2-6-2.5s-24.4-13.2-24.4-13.2l-9.8-8l-10.4-8.3c0,0-6.5,12.3-8.5,11.6
	l19.8,23.8c0,0,14.3,12.5,24.1,16.5s9.1,5.2,9.1,5.2s29.8,15.2,34.4,14.9s3.7,31.1,1.8,36.2s-5,41.6-5,41.6s-3,7.7,0.1,13.1
	c0,0,0.8,11,0,12.9c0,0,53.3,5.7,68.4-1c0,0,2.2-24.7,0-27.8s2.1-10.1,2.1-10.1l9.5-21.3l23.2-23.4c0,0,3.6-19.5-12.3-32l-10.6-9.4
	c0,0-5.9-5.1-7.6-5.4s-1.1,0-1.1,0s-6.9,10-21,7.7c-7.7-1.3-7.7-5.2-7.8-8.3C876.6,107.6,876.4,106,875.9,104.6L875.9,104.6z"/>
<path class="st8" d="M905,184.6c0,0-32.7,1.3-39.3,11.6c0,0,8.5-4,16.1-2.8S905,184.6,905,184.6z M868.8,220.5c0,0,15.5,1,18.8-2.2
	s3.3-5.2,3.3-5.2L868.8,220.5z M908.1,153.1c0,0-13.1,15.5,2.8,22.2L908.1,153.1z M830.6,123.2c0,0,4.8,9.7,7.1,10.4L830.6,123.2z
	 M814.5,119c0,0,11.9,10.7,14.1,11.8C828.7,130.8,816.3,119,814.5,119z M862,108.8c0,0-11.5,17.1-4,27.5
	C857.9,136.3,853.8,124,862,108.8z"/>
<path class="st6" d="M890.9,238.4l-3.5,3.3l-0.5,0.5l-4,3.8c-0.3,0.2-0.6,0.4-0.9,0.6c-16.5,11.8-19.8-6.1-19.8-6.1
	s-7.3,4.8-8.3,0.9s17-9.4,19.6-9.1c0.2,0,0.5,0,0.7,0c1.3-0.2,2.6-0.7,3.7-1.3c0.3-0.1,0.5-0.3,0.8-0.4c0.9-0.5,1.8-1.1,2.7-1.7
	L890.9,238.4z"/>
<path class="st8" d="M908.7,80.7c0,8.3-4.4,16.1-11.6,20.3c-0.3-0.6-0.6-1.1-0.9-1.7c-0.8-2-1.4-4.1-2.2-6.1c-1-2.2-2.3-4.1-4-5.8
	c-0.3-0.3-0.6-0.6-1-0.7c-0.8-0.1-1.6,0.1-2.2,0.6c-1,0.7-2.1,1.2-3.3,1.4c-1.2,0.3-2.5-0.1-3.3-1c-0.9-1.1-0.8-2.7-0.5-4.1
	c0.6-3.1,1.5-6.1,1.5-9.2s-1.2-6.5-3.9-8.1c-2.4-1.4-5.4-1-8-1.8c-0.4-0.1-0.8-0.3-1.2-0.4c9.1-9.4,24.1-9.5,33.5-0.4
	C906.2,68.2,908.7,74.3,908.7,80.7L908.7,80.7z"/>
<path class="st15" d="M866.5,60.4c-0.4,0.2-0.9,0.6-0.8,1.1c0.1,0.2,0.2,0.4,0.4,0.5c1.1,0.9,2.4,1.5,3.7,1.9
	c2.7,0.7,5.7,0.4,8.1,1.8c2.7,1.6,3.9,4.9,3.9,8.1s-1,6.2-1.5,9.2c-0.3,1.4-0.4,3,0.5,4.1c0.9,0.9,2.1,1.3,3.3,1
	c1.2-0.3,2.3-0.8,3.3-1.4c0.6-0.5,1.4-0.7,2.2-0.6c0.4,0.1,0.8,0.4,1.1,0.7c1.7,1.7,3,3.6,4,5.8c0.9,2,1.4,4.1,2.2,6.1
	c0.7,2,2.2,3.8,4,4.9c1.9,1.2,4.4,0.9,6-0.6c1.4-1.5,1.3-3.8,2-5.8c1.2-3.4,4.5-5.5,6.5-8.4c2.3-3.3,3-7.4,3.6-11.4
	c0.3-1.2,0.3-2.5,0.1-3.8c-0.3-0.8-0.6-1.6-1-2.4c-2.3-4.8-2.3-10.8-5.9-14.6c-2.8-2.8-6.9-3.7-10.9-4.2s-8.1-0.8-11.5-2.8
	c-0.9-0.7-2-1.3-3.1-1.7c-1.2-0.4-2.4,0.1-3,1.1c-0.1,0.3-0.2,0.6-0.4,0.8c-0.4,0.2-0.8,0.2-1.2,0.1l-5.2-1.4l0.6,2.6
	c-1.9,0.1-3.8-0.3-5.6-1c-0.1,1.5,1.6,2.5,2.1,3.8c0.4,1.3,0,2.7-1,3.6C871,59.6,868.7,59.2,866.5,60.4z"/>
<path class="st8" d="M845.3,415.8l-0.2,2.4l-0.1,0c-8.5,4.8-26.2-8.5-26.2-8.5l1.8-1.8c0.6,0.7,0.9,1.6,0.8,2.5l3.6,0.2l4.3,4.7
	c0,0,11.7,1.4,14.8,0.6L845.3,415.8z"/>
<path class="st10" d="M843.8,428.8c-5.5,1.2-25,1.1-25,1.1l-10.9,1.7c0,0-18.7,1.8-20.8-4s1.6-5.5,1.6-5.5h0.1l7.8-0.6
	c0,0,9.9-3.8,13.5-6.5c2.9-2.2,5.6-4.6,8.1-7.2c0,0,3.3-0.6,3.2,3.1l3.6,0.2l4.3,4.6c0,0,11.7,1.4,14.8,0.6h1.1l-0.5,5.8l0.1,0.2
	C845.7,423.3,848.8,427.7,843.8,428.8L843.8,428.8z"/>
<circle class="st11" cx="823.7" cy="414.3" r="0.5"/>
<circle class="st11" cx="809.7" cy="420.4" r="0.5"/>
<circle class="st11" cx="802.5" cy="422.6" r="0.5"/>
<circle class="st11" cx="813.3" cy="419.2" r="0.5"/>
<circle class="st11" cx="806.1" cy="421.5" r="0.5"/>
<circle class="st11" cx="817.1" cy="417.5" r="0.5"/>
<circle class="st11" cx="820.7" cy="415.9" r="0.5"/>
<path class="st12" d="M843.8,428.8c-5.5,1.2-25,1.1-25,1.1l-10.9,1.7c0,0-18.7,1.8-20.8-4s1.6-5.5,1.6-5.5h0.1
	c1.2,1.5,3.6,3.3,8.3,3.4l13.4,0.5l13.9-1c0,0,13-0.4,15.2-0.8c1.8-0.5,3.5-1.1,5.2-1.9C845.7,423.3,848.8,427.7,843.8,428.8
	L843.8,428.8z"/>
<path class="st13" d="M808.9,430.3c-0.7,0-1.5-0.1-2.2-0.3l0.2-0.5c1.8,0.4,3.7,0.3,5.5-0.3c0.7-0.2,1.3-0.4,2-0.6
	c3.1-1.1,6.4-1.4,9.7-1.1h0.4c6,0.3,11.9,0,17.8-0.8c1.4-0.1,2.7-0.6,3.8-1.5l0.4,0.4c-1.2,1-2.6,1.6-4.2,1.7c-6,0.9-12,1.1-18,0.8
	h-0.4c-2-0.1-4-0.1-5.9,0.2c-1.2,0.2-2.4,0.5-3.5,0.9c-0.7,0.2-1.3,0.4-2,0.6C811.4,430.1,810.2,430.3,808.9,430.3L808.9,430.3z"/>
<path class="st8" d="M890.9,238.4l-3.5,3.3l-8.7-11.1c0.9-0.5,1.8-1.1,2.7-1.7L890.9,238.4z"/>
<path class="st14" d="M930.3,147l6.8,9.5v10c0,0,3.1,10.6,0,21.1l0.3,9.2c0,0-3.3,8.5-2.1,10.6c0,0-0.6,6.3-8.6,10.6
	s-17.1,14.5-17.1,14.5s-3.4,6.6-12.6,5.1l-8.8,3.7l-10.1-12.9l13.7-7.4c0,0,4.8-6.4,7.6-6.1l11.6-13.5c0,0,0.3-4.3,3.3-4.3
	c0,0-5.5-4.5-3.6-7.1s0.3-14.6,0.3-14.6L930.3,147z"/>
<path class="st8" d="M917.5,190.4c0,0,15.6-0.3,17.5,3.7S922.3,188.2,917.5,190.4z M886.9,241.3c0,0.3,0,0.5-0.1,0.8
	c-0.4,2.5-2.4,4.3-4.9,4.5h-0.3c-2.9,0-5.3-2.4-5.3-5.3l0,0c0-0.6,0.1-1.2,0.3-1.7c-2.5-2-2.6-5.6-2.5-7.4c1.3-0.2,2.6-0.7,3.7-1.3
	c0.6,1.9,1.5,3.6,2.6,5.3c0.4-0.1,0.8-0.2,1.2-0.1C884.6,236.1,886.9,238.4,886.9,241.3C886.9,241.3,886.9,241.3,886.9,241.3z"/>
<path class="st11" d="M878.3,229.8c0,0-3.5,0.8-3.5,1.4s-0.8,6.4,3.1,8.8s3.5-3.3,3.5-3.3S878,231.6,878.3,229.8L878.3,229.8z"/>
<circle class="st16" cx="882.3" cy="241.3" r="5.3"/>
<circle class="st12" cx="882.3" cy="241.3" r="4.5"/>
<path class="st8" d="M861.8,243.4c0,0,11.1,9.2,25.4,3.4v4.5c0,0-9.5,6.5-18.2,2.6S861.8,243.4,861.8,243.4L861.8,243.4z"/>
<path class="st8" d="M861.8,242.2c0,0,11.1,9.2,25.4,3.4v4.5c0,0-9.5,6.5-18.2,2.6S861.8,242.2,861.8,242.2L861.8,242.2z"/>
<path class="st7" d="M861.8,242.2c0,0,11.1,9.2,25.4,3.4v4.5c0,0-9.5,6.5-18.2,2.6S861.8,242.2,861.8,242.2L861.8,242.2z"/>
<path class="st9" d="M862.1,242.2c0,0,11.1,9.2,25.4,3.4v4.5c0,0-9.5,6.5-18.2,2.6S862.1,242.2,862.1,242.2z"/>
<path class="st8" d="M826.9,407.8c0,0,14.9,2.7,17.1,3.3s-0.6,1.6-0.6,1.6S829.8,410.4,826.9,407.8L826.9,407.8z M826.5,400
	c0.2,0,10.1-2.8,12.2-7.5 M840.9,343c0,0,4,5.3,6.6,5.1S843.3,342.8,840.9,343z M843.2,351.8c0,0,1.7,3.7,4.2,2.5"/>
<path class="st9" d="M852.5,270.1l10.5,27.8c0,0,1.5-17.9-1.7-23.3C859.6,271.5,856.1,269.7,852.5,270.1z"/>
<g class="st2">
	<path d="M878.5,49.6l-0.1-0.4l-1.7-0.5l0.2,0.8C877.4,49.7,878,49.7,878.5,49.6L878.5,49.6z M873.8,56.3l0.2-0.2
		c1-0.9,1.4-2.3,1-3.6c-0.2-0.5-0.5-0.9-0.8-1.3c-0.8-0.2-1.7-0.4-2.5-0.7c-0.1,1.5,1.6,2.5,2.1,3.8C874.1,55,874.1,55.7,873.8,56.3
		L873.8,56.3z M901.9,102.1c-1.8-1.2-3.3-2.9-4-4.9c-0.8-2-1.4-4.1-2.2-6.1c-1-2.2-2.3-4.1-4-5.8c-0.3-0.3-0.6-0.6-1-0.7
		c-0.8-0.1-1.6,0.1-2.2,0.6c-1,0.7-2.1,1.2-3.3,1.4c-1.2,0.3-2.5-0.1-3.3-1c-0.9-1.1-0.8-2.7-0.5-4.1c0.6-3.1,1.5-6.1,1.5-9.2
		s-1.2-6.5-3.9-8c-2.4-1.4-5.4-1-8-1.8c-1.4-0.4-2.6-1-3.7-1.9l-0.2-0.2c-0.2,0.1-0.4,0.2-0.7,0.3c-0.4,0.2-0.9,0.6-0.8,1.1
		c0.1,0.2,0.2,0.4,0.4,0.6c1.1,0.9,2.4,1.5,3.7,1.9c2.7,0.7,5.7,0.4,8,1.8c2.7,1.5,3.9,4.9,3.9,8s-1,6.2-1.5,9.2
		c-0.3,1.4-0.4,3,0.5,4.1c0.9,0.9,2.1,1.3,3.3,1c1.2-0.3,2.3-0.8,3.3-1.4c0.6-0.5,1.4-0.7,2.2-0.6c0.4,0.2,0.7,0.4,1,0.7
		c1.7,1.7,3,3.6,4,5.8c0.9,2,1.4,4.1,2.2,6.1c0.7,2.1,2.1,3.8,4,5c1.9,1,4.5,1,6-0.6c0.4-0.4,0.7-0.9,0.9-1.5
		C906,103,903.7,103.1,901.9,102.1L901.9,102.1z M910.5,94.5c1.5-1.9,3.4-3.5,4.8-5.5c0.3-0.4,0.5-0.8,0.8-1.2
		C914.3,90.1,911.8,92,910.5,94.5L910.5,94.5z"/>
</g>
<g class="st2">
	<path d="M822.2,66.4H585.6c-6.8,0-12.3,5.5-12.4,12.4v149.5c0,6.8,5.5,12.3,12.4,12.4h185.6c0,0,4.8,25.5-11,28.3
		c0,0,35.4,2.5,29.2-28.3h32.8c6.8,0,12.3-5.5,12.4-12.4V78.8C834.6,72,829,66.4,822.2,66.4z"/>
	<g class="st3">
		<path d="M613.8,106.1h180.3c3.1,0,5.7,2.5,5.7,5.7v0.3c0,3.1-2.5,5.7-5.7,5.7H613.8c-3.1,0-5.7-2.5-5.7-5.7v-0.3
			C608.1,108.6,610.6,106.1,613.8,106.1z"/>
		<path d="M613.8,158.3h146.8c3.1,0,5.7,2.5,5.7,5.7v0.3c0,3.1-2.5,5.7-5.7,5.7H613.8c-3.1,0-5.7-2.5-5.7-5.7V164
			C608.1,160.8,610.6,158.3,613.8,158.3z"/>
		<path d="M613.8,132.2h102.5c3.1,0,5.7,2.5,5.7,5.7v0.3c0,3.1-2.5,5.7-5.7,5.7H613.8c-3.1,0-5.7-2.5-5.7-5.7v-0.3
			C608.1,134.7,610.6,132.2,613.8,132.2z"/>
	</g>
</g>
<path class="st1" d="M825.3,64.3H588.7c-6.8,0-12.3,5.5-12.4,12.4v149.5c0,6.8,5.5,12.3,12.4,12.4h185.6c0,0,4.8,25.5-11,28.3
	c0,0,35.4,2.5,29.2-28.3h32.8c6.8,0,12.3-5.5,12.4-12.4V76.7C837.7,69.9,832.1,64.4,825.3,64.3L825.3,64.3z"/>
<g class="st3">
	<path class="st4" d="M616.8,104h180.3c3.1,0,5.7,2.5,5.7,5.7v0.3c0,3.1-2.5,5.7-5.7,5.7H616.8c-3.1,0-5.7-2.5-5.7-5.7v-0.3
		C611.2,106.6,613.7,104,616.8,104z"/>
	<path class="st4" d="M616.8,156.2h146.8c3.1,0,5.7,2.5,5.7,5.7v0.3c0,3.1-2.5,5.7-5.7,5.7H616.8c-3.1,0-5.7-2.5-5.7-5.7v-0.3
		C611.2,158.8,613.7,156.2,616.8,156.2z"/>
	<path class="st4" d="M616.8,130.1h102.5c3.1,0,5.7,2.5,5.7,5.7v0.3c0,3.1-2.5,5.7-5.7,5.7H616.8c-3.1,0-5.7-2.5-5.7-5.7v-0.3
		C611.2,132.7,613.7,130.1,616.8,130.1z"/>
</g>
<path class="st4" d="M82.9,564c0,0,3.6,4.7-1.7,11.7s-9.5,13-7.8,17.4c0,0,7.9-13.1,14.3-13.3S90,571.9,82.9,564z"/>
<path class="st8" d="M82.9,564c0.3,0.5,0.5,0.9,0.7,1.5c6.3,7.3,9.6,14.2,3.6,14.4c-5.6,0.2-12.3,10.2-13.9,12.7
	c0,0.2,0.1,0.4,0.2,0.6c0,0,7.9-13.1,14.3-13.3S90,571.9,82.9,564z"/>
<path class="st17" d="M89.6,570c0,1.6-0.2,3-0.4,3s-0.4-1.3-0.4-3s0.2-0.9,0.5-0.9S89.6,568.3,89.6,570z"/>
<path class="st17" d="M91.8,571.9c-1.4,0.8-2.7,1.3-2.8,1.1s1-1,2.4-1.8s0.9-0.2,1,0S93.3,571.1,91.8,571.9L91.8,571.9z"/>
<path class="st4" d="M64.1,564c0,0-3.6,4.7,1.7,11.7c5.2,7,9.5,13,7.8,17.4c0,0-7.9-13.1-14.3-13.3S57.1,571.9,64.1,564z"/>
<path class="st8" d="M64.1,564c-0.3,0.5-0.5,0.9-0.7,1.5c-6.3,7.3-9.6,14.2-3.6,14.4c5.6,0.2,12.3,10.2,13.9,12.7
	c-0.1,0.2-0.1,0.4-0.2,0.6c0,0-7.9-13.1-14.3-13.3S57.1,571.9,64.1,564z"/>
<ellipse class="st0" cx="73.5" cy="623" rx="37.3" ry="5.7"/>
<path class="st18" d="M92.8,586.8l-0.2,1.5l-0.3,2.1l-0.1,0.9l-0.3,2l-0.1,0.9l-0.3,2.1l-2.9,23.4c-0.3,2.1-3.7,3.7-7.8,3.7H66.1
	c-4.1,0-7.5-1.6-7.8-3.7l-2.9-23.4l-0.3-2.1l-0.1-0.9l-0.3-2l-0.1-0.9l-0.3-2.1l-0.2-1.5c-0.1-1.2,1.7-2.2,4-2.2h30.3
	C91,584.6,92.9,585.6,92.8,586.8z"/>
<path class="st19" d="M92.5,588.3l-0.3,2.1H54.8l-0.3-2.1H92.5z M92.2,591.2l-0.3,2H55.1l-0.3-2H92.2z M91.8,594.1l-0.3,2.1H55.5
	l-0.3-2.1H91.8z"/>
<ellipse class="st0" cx="645.8" cy="789.3" rx="84" ry="13.8"/>
<g class="st2">
	<path d="M743.1,365.9H486.7c-7.4,0-13.4,6-13.4,13.4v162c0,7.4,6,13.4,13.4,13.4h201.1c0,0,5.2,27.7-11.9,30.6
		c0,0,38.3,2.8,31.6-30.6h35.5c7.4,0,13.4-6,13.4-13.4v-162C756.5,371.9,750.5,365.9,743.1,365.9L743.1,365.9z"/>
	<g class="st3">
		<path d="M516.8,465.5h196.4c3.1,0,5.7,2.5,5.7,5.7v1.3c0,3.1-2.5,5.7-5.7,5.7H516.8c-3.1,0-5.7-2.5-5.7-5.7v-1.3
			C511.1,468,513.6,465.5,516.8,465.5z"/>
		<path d="M516.8,437.2h78.7c3.1,0,5.7,2.5,5.7,5.7v1.3c0,3.1-2.5,5.7-5.7,5.7h-78.7c-3.1,0-5.7-2.5-5.7-5.7v-1.3
			C511.1,439.7,513.6,437.2,516.8,437.2z"/>
	</g>
</g>
<path class="st1" d="M740.9,363.6H484.5c-7.4,0-13.4,6-13.4,13.4v162c0,7.4,6,13.4,13.4,13.4h201.1c0,0,5.2,27.7-11.9,30.6
	c0,0,38.3,2.8,31.6-30.6h35.6c7.4,0,13.4-6,13.4-13.4V377C754.3,369.6,748.3,363.7,740.9,363.6L740.9,363.6z"/>
<g class="st3">
	<path class="st4" d="M514.5,463.2h196.4c3.1,0,5.7,2.5,5.7,5.7v1.3c0,3.1-2.5,5.7-5.7,5.7H514.5c-3.1,0-5.7-2.5-5.7-5.7v-1.3
		C508.9,465.8,511.4,463.2,514.5,463.2z"/>
	<path class="st4" d="M514.5,434.9h78.7c3.1,0,5.7,2.5,5.7,5.7v1.3c0,3.1-2.5,5.7-5.7,5.7h-78.7c-3.1,0-5.7-2.5-5.7-5.7v-1.3
		C508.9,437.5,511.4,434.9,514.5,434.9z"/>
</g>
<linearGradient id="SVGID_2_" gradientUnits="userSpaceOnUse" x1="726.1824" y1="-16.9256" x2="726.1824" y2="433.8963" gradientTransform="matrix(1 0 0 -1 -138.09 772.51)">
	<stop  offset="0" style="stop-color:#808080;stop-opacity:0.25"/>
	<stop  offset="0.54" style="stop-color:#808080;stop-opacity:0.12"/>
	<stop  offset="1" style="stop-color:#808080;stop-opacity:0.1"/>
</linearGradient>
<path class="st20" d="M694.2,780c-1.2-5.1-2-9.6-2-9.6s0.3-5.6-2.2-9.8v-11.7c0.7-1.9,1.6-3.7,2.6-5.4c1.9-3.3,0-15.2,0-15.2
	s-6.9-16.8-5.2-27.4s-14.2-47.3-14.2-47.3c0.1-3.5,0.6-7,1.5-10.5c0.2-0.7,0.2-1.5,0.2-2.2c0-0.1,0-0.2,0-0.3v0.1
	c-0.2-7-5.8-20.2-5.8-20.2l0.8-25.1c0,0,3.5-14.8-2.2-34.6c-2-6.9-3.3-12.5-4.1-16.7c-0.1-0.5-0.2-1-0.3-1.4c11.9-1.8,21-3.3,21-3.3
	s-6.9-28.9-11.5-33.9s-8.4-21-8.4-21s-2.4-20.4,1.5-26.3s4.5-16.2,4.5-16.2s9-6.5,10.1-9.4s3-9.4,3-12.8s-1.1-6.5-0.8-8.3
	s-2.6-8.7-1.1-11.9c0.4-1,0.6-2.1,0.6-3.1v-0.1c0-2.8-0.3-5.7-0.8-8.5c-2.6-2.2-5.6-3.8-8.8-4.7l-0.2-0.8l-0.5-2
	c-0.3-0.2-0.6-0.4-0.9-0.5v-0.7l-0.1-2.9l1.4-6.6c2.8-11.5-12.5-13.2-12.5-13.2c-0.9-1.8-2.5-3.1-4.3-3.8
	c-3.1-1.1-0.5,17.2,0.9,18.4c1.1,0.9,4.4,6.6,6,9.4l0.3,0.5c-0.3,0.2-0.5,0.5-0.7,0.7l0.6,4l0.1,0.6c-1,1.3-1.8,2.7-2.4,4.2
	c0,0,2.8,3.1,2.2,6.5s0.8,7.7,0.9,7.9c-0.2-0.2-2.1-2.3-4.1-1.8s-7.5,2.2-7.5,2.2s-4.1,0.7-3.7,1.6s-2.8,4.9-2.8,4.9l-11-10.4
	c-0.1-0.3-0.2-0.6-0.3-1c-0.5-1.5-0.8-3-1-4.6c1.2-0.3,2.4-0.7,3.5-1.1c1.1-0.4,2.2-1.1,3-2c1.1-1.3,1.3-3.1,1.8-4.8
	c0.9-3.2,2.8-6.1,4.1-9.1c2.3-5.1,3-10.8,2.2-16.4c-0.2-1.7-0.8-3.4-1.7-4.8c-1.8-2.5-5.1-3.5-7.4-5.5s-3.9-5-6.7-6.5
	c-2.5-1.3-5.5-1.2-8.4-0.7c-5.5,0.9-10.8,2.8-15.6,5.7c-1.6,1-3.4,2-5.2,1.7c-1.6-0.3-2.7-1.6-3.8-2.8c0,0,0-0.1,0-0.1l-0.1-0.1
	c-1.1,2.6-1.7,5.4-1.6,8.2c0,0.4,0,0.9,0,1.3v0.8c0,0.2,0,0.4-0.1,0.6c-0.2,0.6-0.6,1.1-1,1.5c-0.3,0.4-0.6,0.8-0.9,1.2
	c0-0.2,0.1-0.3,0.2-0.5c-0.7,1-1.1,2.2-1.1,3.5c-0.1,0.9,0.2,1.8,0.8,2.5c0.6,0.5,1.2,1,1.8,1.5c-1.6,8.7,2.4,17.4,10,21.8
	c0.1,0.3,0.3,0.6,0.4,1c1.4,3.7,2.5,8,2,12c0,0.3-0.1,0.6-0.1,0.9s-0.3,0.3-0.4,0.5s-18.2,0.2-22.5-3.7s-10.8,9.5-10.8,9.5
	s-6.5,1.3-7.8,0s-9-0.2-9-0.2c-3.1-2.8-7.2-4.2-11.3-4.1c-2.5-1.9-5.4-3.5-8.3-4.6l-0.2-0.1c-1.3-0.5-2.7-0.7-4.1-0.5
	c0,0-9-7.4-11.6-11.4s-15-18.7-15.1-18.8v-0.7l-0.1-2.1c-0.4,0.1-0.7,0.1-1.1,0.1c-0.1-0.2-0.2-0.5-0.3-0.7
	c-0.7-2.1-1.6-4.1-2.6-6.1c0,0,0-2.7,0.8-3.4s-0.3-10.6-0.3-10.6s-8.1-18.9-15.3-4.8c0,0-13.7,9.1-2.2,19.7c0,0,4.6,2.2,5.2,4
	c0.4,1.1,2,4.3,3,6.4l0.5,1l-0.1,0.1l0.2,1.8l0.1,0.7c-2.2,1.2-3.6,2.4-3.3,3.4c0.6,1.6,1.1,3.2,1.3,4.9c0,0,15.8,19.8,17.8,28.3
	c0,0,42.5,25.3,56.5,27l-2.4,12.6c-0.4,3.4-0.5,6.8-0.6,10.3c0.2,2.7-1.7,15-1.7,15s-2.4,18-4.5,20.6s-1.6,13.3-1.6,13.3
	c-0.5,5.2-1.4,10.3-2.8,15.3c-2,6.9-0.6,15.3-0.6,15.3s-7.1,16.2,9.9,5.2c0,0,8.3-0.5,17.9-0.8v1c0,1.2,0,2.6-0.1,4
	c-0.1,9.3-0.2,22.1,0.2,31.8c0.8,17.1,6,51,6,51v17c-0.3,1.6-0.5,3.2-0.5,4.9c-0.1,6,1.5,11.9,4.6,17.1l1.3,11.4c0,0,3.1,7.5,3.1,12
	c0,0.4-0.1,0.7-0.1,1.1c-0.1,0.6-0.2,1.2-0.2,1.7c-0.2,5.2,2.9,17.5,2.9,17.5s0.2,12.5,2,13.2c1.6,0.6-2.1,7.2-3.2,9.1
	c0-0.1,0-0.2-0.1-0.4l-0.2,0.4c-0.4,1-0.6,2.1-0.6,3.1c-0.2,1.7,0.6,3.4,2.1,4.4c3.5,2.2,5.4,4,2.4,4.7c-1.1,0.2-2.2,0.4-3.3,0.7
	l-0.2-0.4c-0.9,0.4-1.4,1.3-1.2,2.2c0,1.5,0.4,2.9,1.1,4.2c3,6.7,5,9.2,5,9.2l1.4-0.2c-0.2,0.5-0.5,1.1-0.8,1.5
	c-0.5,0.8-1.3,1.4-2.1,1.9c-0.8,0.5-1.6,0.8-2.5,0.9c-2,0.1-4,1-5.3,2.6c-1.9,2.4-3,5.7,0.7,8.6l13.3,4.6c0,0,22.9,3,21.7-2.2
	s-2-9.7-2-9.7c0.1-3.1-0.5-6.3-1.9-9.1c-0.2-0.5-0.5-0.9-0.8-1.3l0.8-0.1c0,0,1.7-11.4,3.9-13.5c0.5-0.5,0.6-0.9,0.5-1.2
	c0.2-0.6-0.3-1-1.1-1.2l-0.2,0.5c-0.7-0.2-1.5-0.2-2.2-0.3c0,0-0.7-6,1.7-8.1c0.4-0.5,0.6-1.1,0.5-1.8c0-0.8-0.1-1.6-0.3-2.4
	l-0.1,0.1c-1.2-5.4-5.3-14-5.3-14s-0.2-5.4,1.3-7.6s-0.2-29.4-0.2-29.4s0.6-13.2-1.1-19.3s2-13.3,2-13.3v-0.4l0-0.1
	c0,0-0.1-0.8-0.2-2.1v0.1c-0.4-3.5-1.1-9.8-1.6-12.7c-0.8-4.2,0.2-24,0.2-24l3.4-8.5l6,14.6l6.3,19.5c0,0,3.1,4.1,3.2,8.3
	c0,0.2,0,0.4,0,0.6c0,0.4-0.1,0.9-0.1,1.3c-0.1,2.5,0.6,4.9,1.9,6.9c0,0,1.7,9.2,4.3,11.5s2.6,6.8,2.6,6.8s3.2,13.3,4.7,15.7
	c1.3,2,1.3,7.4,1.3,9.1v0.5c0,0,0.4,4.8,0.4,8.8v1.4c0,0,0-0.1,0-0.1c0,1.1-0.1,2.2-0.4,3.3c0,0,0,0.1-0.1,0.2l0.1-0.7
	c-0.7,2.7-1,5.5-1,8.3c-0.1,4.8,0.6,10.5,3.5,13.8c5,5.8,8.2,5.1,8.2,5.1s-2.4,7.2-5.4,8.7c-0.1,0.1-0.2,0.1-0.3,0.2
	c0-0.1-0.1-0.3-0.1-0.4c-0.7,0.7-1,1.7-0.9,2.7c-0.2,3.2,1.8,8.3,3.7,10.7c0.7,0.7,1.6,1.2,2.5,1.5l-0.5,0.3c-0.3,0.2-0.7,0.3-1,0.5
	c-0.5,0.2-1,0.3-1.5,0.4c-2,0.1-4,1-5.3,2.6c-1.9,2.4-3,5.7,0.7,8.5l13.3,4.6C672.6,782.2,695.4,785.1,694.2,780L694.2,780z"/>
<path class="st21" d="M606.6,788.5l-12.9-4.6c-3.6-2.9-2.4-6.2-0.6-8.6c1.3-1.6,3.1-2.5,5.1-2.6c0.9-0.1,1.7-0.4,2.5-0.9
	c0.8-0.5,1.5-1.1,2-1.9c0.9-1.5,1.5-3.2,1.5-5c0,0,14.2-4.2,18,0c0.7,0.8,1.3,1.6,1.7,2.5c1.3,2.9,1.9,6,1.8,9.1
	c0,0,0.7,4.5,1.9,9.7S606.6,788.5,606.6,788.5L606.6,788.5z M669.7,782.1l-12.9-4.6c-3.6-2.9-2.4-6.2-0.6-8.5
	c1.2-1.6,3.1-2.5,5.1-2.6c0.5,0,1-0.2,1.5-0.4c0.3-0.1,0.7-0.3,1-0.5c3.6-2,3.5-6.8,3.5-6.8s14.2-4.2,18,0c0.5,0.6,1,1.2,1.3,1.8
	c2.4,4.2,2.2,9.8,2.2,9.8s0.7,4.5,1.9,9.7S669.7,782.1,669.7,782.1L669.7,782.1z"/>
<path class="st8" d="M622.2,765c0.7,0.8,1.3,1.6,1.7,2.5l-21.2,2.5c0.9-1.5,1.5-3.2,1.5-5C604.1,765,618.3,760.9,622.2,765
	L622.2,765z M686.7,760.5v4c-3.3,5.4-19.3,4.3-23.9,1.5c0.3-0.1,0.7-0.3,1-0.5c3.6-2,3.5-6.8,3.5-6.8s14.2-4.2,18,0
	C685.8,759.2,686.3,759.9,686.7,760.5L686.7,760.5z"/>
<path class="st11" d="M689.2,743.4c-1,1.7-1.8,3.5-2.5,5.4v14.3c-3.6,6-22.4,4-24.9,0.7s-5.2-11.7-2.3-13.2s5.2-8.7,5.2-8.7
	s-3.1,0.7-7.9-5s-3.4-18.6-2.5-21.7s0-13.3,0-13.3s0.2-7.2-1.3-9.6s-4.5-15.7-4.5-15.7s0-4.5-2.5-6.9s-4.2-11.5-4.2-11.5
	c-1.5-2.3-2.1-5-1.8-7.8c0.5-4.5-3.1-9.4-3.1-9.4l-6.1-19.5L625,607l-3.2,8.5c0,0-0.9,19.8-0.2,24s1.8,15.2,1.8,15.2
	s-3.6,7.2-2,13.3s1.1,19.3,1.1,19.3s1.6,27.2,0.2,29.4s-1.3,7.6-1.3,7.6s7.4,15.9,5,18s-1.6,8.1-1.6,8.1s5,0,2.9,2.2
	s-3.7,13.6-3.7,13.6l-21.8,2.5c0,0-2-2.5-4.9-9.2s0.5-6,3.5-6.7s1.1-2.5-2.4-4.7s-1.5-7-1.5-7s5.2-8.8,3.4-9.6s-2-13.2-2-13.2
	s-3.6-14.8-2.7-18.8s-2.9-13.5-2.9-13.5l-1.3-11.4c-3.9-6.4-5.3-14.1-4-21.5v-17.5c0,0-5-33.9-5.8-51c-0.5-11-0.3-26-0.2-35.3
	c0.1-5.2,0.2-8.7,0.2-8.7l78-8.1c0.1,3.9,0.6,7.8,1.4,11.6c0.8,4.3,2,9.8,4,16.8c5.6,19.8,2.2,34.6,2.2,34.6l-0.7,25.1
	c0,0,6.9,16.8,5.4,22.5c-0.9,3.4-1.3,6.9-1.4,10.5c0,0,15.3,36.6,13.7,47.3s5,27.4,5,27.4S691,740.2,689.2,743.4L689.2,743.4z"/>
<path class="st9" d="M644.7,649.4l23.7-3.2C668.4,646.3,654.9,660,644.7,649.4z"/>
<path class="st8" d="M664.9,623.1c0,0,0.8,8.4-4.3,11.5C660.6,634.6,669.8,633.2,664.9,623.1z M663.5,596.4c0,0-19.8,16.3-27,15
	S663.5,596.4,663.5,596.4z M615.3,657.1c0,0-15.1,3.4-15.5,9.5S615.3,657.1,615.3,657.1z"/>
<path class="st9" d="M618.6,732.3c0,0-21.3,4-15.2,6.7s16,4.9,16,4.9S626.1,744.2,618.6,732.3z"/>
<g class="st22">
	<path d="M599,743.3c-1.1-0.7-1.8-1.8-1.9-3.1l-0.2,0.4c0,0-2,4.9,1.4,7c0.4,0.3,0.8,0.5,1.1,0.7c0.6-0.1,1.3-0.2,2-0.4
		C604.3,747.2,602.5,745.4,599,743.3z M626.4,741.8c0.6-0.5,0.6-1.9,0.2-3.7c-0.9,1.6-1.3,3.4-1.2,5.2
		C625.7,742.8,626,742.3,626.4,741.8L626.4,741.8z M623.2,652.1c-0.8,2.1-1.3,4.4-1.4,6.6c0.4-1.6,1-3.1,1.7-4.6
		C623.4,654.2,623.3,653.4,623.2,652.1z M671.9,642.6c0.1-0.7,0.2-1.3,0.2-2c-0.3,1.3-0.5,2.6-0.6,3.7
		C671.6,643.8,671.8,643.2,671.9,642.6z M622.7,716.2c0.4-1.3,0.6-2.6,0.5-4c-0.7,1.6-1,3.3-1,5.1
		C622.3,716.9,622.5,716.6,622.7,716.2z M627.1,750.2c-1.1,3.6-2,7.3-2.5,11.1l-21.8,2.5c0,0-2-2.5-4.9-9.2
		c-0.3-0.6-0.5-1.1-0.6-1.6c-1.3,0.6-1.8,2-0.1,5.9c2.9,6.7,4.9,9.2,4.9,9.2l21.8-2.5c0,0,1.6-11.4,3.8-13.5
		C628.8,751,628.1,750.5,627.1,750.2L627.1,750.2z M598.3,717.8c0,0,0.2,12.5,2,13.2c0.9-2.1,1.5-4,0.7-4.3c-1.8-0.7-2-13.2-2-13.2
		s-3.6-14.8-2.7-18.8s-2.9-13.5-2.9-13.5l-1.3-11.4c-3.9-6.4-5.3-14.1-4-21.5v-17.5c0,0-5-33.9-5.8-51c-0.5-11-0.3-26-0.2-35.3
		c0-1.7,0-3.2,0.1-4.5l-0.6,0.1c0,0-0.1,3.5-0.2,8.7c-0.2,9.3-0.3,24.3,0.2,35.3c0.7,17.1,5.8,51,5.8,51v17.5
		c-1.3,7.4,0.1,15,4,21.5l1.3,11.3c0,0,3.8,9.6,2.9,13.5S598.3,717.8,598.3,717.8L598.3,717.8z M662.5,759c-1.8-2.6-3-5.5-3.5-8.6
		c-2.2,2,0.3,9.8,2.7,12.9c2.5,3.2,21.3,5.2,24.9-0.7v-3.4C681.8,764,664.9,762,662.5,759L662.5,759z M689.9,738.6
		c-1,1.7-1.8,3.5-2.5,5.4v2.5c0.4-0.9,1-2.2,1.8-3.6c0.6-1.4,0.8-2.9,0.8-4.5C690,738.5,690,738.5,689.9,738.6L689.9,738.6z
		 M663.6,741.4c0.7-1.4,1.3-2.8,1.8-4.3c0,0-3.1,0.7-7.9-5c-3.5-4.2-3.8-12.1-3.2-17.3c-0.9,3.1-2.3,15.9,2.5,21.6
		C659.9,740.2,662.3,741.2,663.6,741.4L663.6,741.4z M654.2,701.4c0.3,3.6,0.4,7.1,0.4,10.7c0.1-0.6,0.2-1.1,0.4-1.7
		c0.9-3.1,0-13.3,0-13.3s0.2-7.2-1.3-9.6s-4.5-15.7-4.5-15.7s0-4.5-2.5-6.8s-4.2-11.5-4.2-11.5c-1.5-2.3-2.1-5-1.8-7.8
		c0.5-4.5-3.1-9.4-3.1-9.4l-6.1-19.5l-5.8-14.6l-3.3,8.5c0,0,0,1.1-0.1,2.7l2.6-6.9l5.8,14.6l6.2,19.5c0,0,3.6,4.9,3.1,9.4
		c-0.3,2.7,0.3,5.5,1.8,7.8c0,0,1.6,9.2,4.1,11.5s2.5,6.8,2.5,6.8s3.1,13.3,4.5,15.7S654.2,701.4,654.2,701.4L654.2,701.4z"/>
</g>
<path class="st23" d="M669.4,369.5l-1.4,6.6l0.1,2.9l0.1,2.2l-7.5,0.8l-0.8-1.6c-1.6-2.8-4.8-8.6-5.8-9.4
	c-1.4-1.2-3.9-19.5-0.9-18.4c1.8,0.7,3.3,2.1,4.2,3.8C657.2,356.4,672,358.1,669.4,369.5L669.4,369.5z"/>
<path class="st8" d="M668.2,381.2l-7.5,0.8l-0.8-1.6c2.1-2.4,5.6-2.9,8.3-1.4L668.2,381.2z"/>
<path class="st12" d="M670,384.8l-9.9,2.3l-0.2-1.5l-0.6-4c0,0,3.9-5.2,9.6-1.3l0.5,2L670,384.8z"/>
<path class="st23" d="M509.3,370.3l-10.6,5.7l-1-2c-1-2.1-2.5-5.3-2.9-6.4c-0.6-1.8-5-4-5-4c-11.1-10.6,2.1-19.7,2.1-19.7
	c7-14.1,14.8,4.8,14.8,4.8s1.1,9.9,0.3,10.6s-0.8,3.4-0.8,3.4c1,2,1.9,4,2.6,6.1C509.1,369.7,509.3,370.3,509.3,370.3L509.3,370.3z"
	/>
<path class="st8" d="M509.3,370.3l-10.6,5.7l-1-2c1.5-1.2,6.8-5.5,8.5-5.4c0.8,0.1,1.7,0.1,2.5,0.1
	C509.1,369.6,509.3,370.3,509.3,370.3L509.3,370.3z"/>
<path class="st12" d="M510.4,373.5l-11.9,5.9l-0.2-2.6l-0.2-1.8c0,0,6.9-5.9,8.9-5.7c1,0.2,2.1,0.2,3.1,0l0.1,2.1L510.4,373.5z"/>
<path class="st23" d="M640.5,413.3c0,0-51.9,5.9-42.2,2.7c6.8-2.2,9.4-6.5,10-11.3c0.5-4-0.6-8.3-1.9-12c-1.2-3.3-2.8-6.4-4.6-9.4
	c0,0,39.7-21.8,31.8-2c-1.2,3-2,6.2-2.3,9.4c-0.3,3.2,0.1,6.4,1,9.5C633.7,405.3,636.6,409.8,640.5,413.3L640.5,413.3z"/>
<path class="st8" d="M633.5,381.4c-1.2,3-2,6.2-2.3,9.4c-3.7,3.1-7.8,2.9-13.1,2.9c-4,0-8.5,1-11.8-1c-1.2-3.3-2.8-6.4-4.6-9.4
	C601.7,383.3,641.4,361.5,633.5,381.4L633.5,381.4z"/>
<circle class="st23" cx="617.4" cy="373.6" r="21.5"/>
<path class="st8" d="M640.5,413.3c0,0-51.9,5.9-42.2,2.7c6.8-2.2,9.4-6.5,10-11.3c2.6-2.8,7.8-4.8,11.1-5.9c3-1,6.3-1.1,9.4-0.1
	c1.2,0.4,2.4,0.9,3.4,1.6C633.7,405.3,636.6,409.8,640.5,413.3L640.5,413.3z M670,384.8l-9.9,2.3l-0.2-1.5c2.2-3,6-4.3,9.5-3.3
	L670,384.8z M510.4,373.5l-11.9,5.9l-0.2-2.6c3.9-2.1,7.9-3.8,12-5.3L510.4,373.5z M661,544.1c-20.1,3.2-48.7,7.3-53.3,5.9
	c-3.8-1.2-15.8-1-26.3-0.7c0.1-5.2,0.2-8.7,0.2-8.7l77.9-8.1C659.7,536.4,660.2,540.3,661,544.1L661,544.1z"/>
<path class="st24" d="M681.1,539.4c0,0-66.2,11.4-73.3,9.2s-43.6,0.2-43.6,0.2c-16.4,11-9.6-5.2-9.6-5.2s-1.4-8.5,0.5-15.3
	c1.3-5,2.3-10.2,2.8-15.3c0,0-0.4-10.8,1.6-13.4s4.3-20.6,4.3-20.6s1.8-12.3,1.6-15c0-3.4,0.2-6.9,0.5-10.3l2.3-12.6
	c-13.5-1.8-54.7-27.1-54.7-27.1c-2-8.5-17.3-28.3-17.3-28.3c-0.2-1.7-0.6-3.3-1.3-4.9c-1.1-2.9,15.2-8.6,15.2-8.6
	s12.1,14.8,14.6,18.8s11.2,11.4,11.2,11.4c1.4-0.1,2.7,0,4,0.5l0.2,0.1c2.9,1.1,5.6,2.7,8.1,4.6c4.1-0.1,8,1.4,11,4.1
	c0,0,7.4-1.1,8.7,0.2s7.6,0,7.6,0s6.3-13.4,10.5-9.5s21.8,3.7,21.8,3.7c2.3-3.1,8.1-5.4,11.6-6.5c3-1,6.3-1.1,9.4-0.1
	c1.3,0.4,2.6,1,3.7,1.8l10.7,10.5c0,0,3.1-4,2.7-4.9s3.6-1.6,3.6-1.6s5.2-1.6,7.2-2.2s3.8,1.6,4,1.8c-0.1-0.2-1.4-4.6-0.9-7.9
	s-2.2-6.5-2.2-6.5c6.3-15.5,20.6-2.5,20.6-2.5s1.6,8.5,0.2,11.7s1.4,10.1,1.1,11.9s0.7,4.9,0.7,8.3s-1.8,9.9-2.9,12.8
	s-9.7,9.4-9.7,9.4s-0.5,10.3-4.3,16.2s-1.5,26.3-1.5,26.3s3.6,15.9,8.2,21S681.1,539.4,681.1,539.4L681.1,539.4z"/>
<path class="st8" d="M584.6,420.7c0,0-2-6-3.8-6.5c-1.8-0.7-3.5-1.5-5.2-2.4l1.2-2.2c0,0,6.8,1.9,7.9,3.8S584.6,420.7,584.6,420.7z
	 M548.3,407.5c-0.4,1.8-16.4,3.4-16.4,3.4l8.1-8.1l0.2,0.1C543.1,404,545.9,405.6,548.3,407.5z"/>
<circle class="st11" cx="501.9" cy="382.8" r="1.4"/>
<circle class="st11" cx="503.7" cy="385.6" r="1.4"/>
<circle class="st11" cx="505.5" cy="388.3" r="1.4"/>
<circle class="st11" cx="507.4" cy="391.2" r="1.4"/>
<circle class="st11" cx="677.5" cy="391" r="1.2"/>
<circle class="st11" cx="677.6" cy="393.7" r="1.2"/>
<circle class="st11" cx="677.8" cy="396.4" r="1.2"/>
<path class="st8" d="M584.7,469.6c-0.2-0.2,40.5,51.1,72.1,21.5C656.7,491,606.9,497.8,584.7,469.6z M561.3,496.3
	c0,0,24.3,0.7,26.9,7.7v7.3c-1.4,0.8-3.1,0.8-4.5,0c-2.5-1.3-17.2-8.8-22.3-5.2V496.3z"/>
<path class="st24" d="M561.8,496.3c0,0,23.3,0.6,25.7,7.3v6.9c-1.3,0.7-3,0.7-4.3,0c-2.3-1.3-16.4-8.4-21.4-5V496.3z"/>
<path class="st8" d="M574.6,443.4c2.5,5.8,5.7,11.2,9.4,16.2c4.1,5.5,9.1,10.3,14.8,14.3C598.8,473.9,575,446.8,574.6,443.4z
	 M566.6,415.2c0,0,4.1,17.5,14.5,23.5L566.6,415.2z M560.4,416.9c-0.1-0.3-3.6,13.9,13.5,21.7C573.9,438.6,566.6,436.2,560.4,416.9z
	 M666.7,405.2c-0.3,0,8.4,5.5,10.8,8.1C677.5,413.3,671.8,404.8,666.7,405.2z"/>
<path class="st21" d="M611.6,393.1c0.2,1.1,0.8,2.2,1.7,2.9c0.6,0.3,1.3,0.5,2,0.5c6.5,0.4,13.4,0.7,19.4-1.8c1.1-0.4,2.2-1.1,3-2
	c1.1-1.3,1.3-3.1,1.7-4.8c0.8-3.2,2.7-6.1,4-9.1c2.2-5.2,2.9-10.8,2.1-16.4c-0.2-1.7-0.7-3.3-1.6-4.8c-1.7-2.5-4.9-3.5-7.2-5.5
	s-3.8-5-6.5-6.5c-2.4-1.3-5.4-1.2-8.1-0.7c-5.4,0.9-10.6,2.8-15.2,5.7c-1.5,1-3.3,2-5,1.7c-1.6-0.3-2.7-1.6-3.7-2.9
	c-1.3,2.9-1.8,6.2-1.6,9.4c0.1,0.5,0.1,0.9,0,1.4c-0.2,0.6-0.6,1.1-1,1.5c-1.6,1.9-2.6,4.8-1,6.7c0.7,0.8,1.8,1.3,2.4,2.1
	c1.2,1.5,0.8,3.7,0.8,5.6c-0.1,0.7,0.1,1.3,0.5,1.9c0.7,0.7,1.7,0.9,2.7,0.6c0.9-0.3,1.9-0.4,2.8-0.3c1,0.3,1.9,1,2.5,1.9
	C609.2,384.2,610.3,388.4,611.6,393.1L611.6,393.1z"/>
<g class="st2">
	<path d="M638.4,391c-0.8,0.9-1.8,1.6-3,2c-6,2.5-12.9,2.2-19.4,1.8c-0.7,0-1.4-0.1-2-0.5c-0.9-0.7-1.5-1.8-1.7-2.9
		c-1.3-4.6-2.4-8.9-5.5-12.7c-0.6-0.9-1.4-1.6-2.5-1.9c-0.9-0.1-1.9,0-2.8,0.3c-0.9,0.3-1.9,0-2.6-0.6c-0.4-0.6-0.5-1.2-0.5-1.9
		c0-1.9,0.4-4.1-0.8-5.6c-0.7-0.9-1.7-1.3-2.4-2.1c-0.9-1.3-1.1-2.9-0.4-4.3c-1.1,1.8-1.6,4.2-0.3,5.8c0.7,0.8,1.8,1.3,2.4,2.1
		c1.2,1.5,0.8,3.7,0.8,5.6c-0.1,0.7,0.1,1.3,0.5,1.9c0.7,0.7,1.7,0.9,2.7,0.6c0.9-0.3,1.9-0.4,2.8-0.3c1,0.3,1.9,1,2.5,1.9
		c3,3.8,4.2,8.1,5.5,12.7c0,1.9,1.5,3.4,3.4,3.4c0.1,0,0.2,0,0.3,0c6.5,0.4,13.4,0.7,19.4-1.8c1.1-0.4,2.2-1.1,3-2
		c0.4-0.5,0.7-1.1,0.9-1.7C638.6,390.8,638.5,390.9,638.4,391L638.4,391z M596.6,359.7c0.3-0.3,0.5-0.7,0.7-1.1
		c0.1-0.5,0.1-0.9,0-1.4c-0.2-2.6,0.2-5.3,1-7.8l-0.1-0.1c-1.3,2.9-1.8,6.1-1.6,9.4C596.6,359,596.6,359.3,596.6,359.7z"/>
</g>
<path class="st8" d="M607.8,406.1c0,0,26.8,3.5,29.2-0.5 M659.9,395c0,0,14.9,0,18.2,5.6"/>
<path class="st4" d="M980.7,381.5c0,0,1.9,2.4-0.9,6.1s-5,6.8-4.1,9.1c0,0,4.1-6.8,7.5-6.9S984.4,385.6,980.7,381.5L980.7,381.5z"/>
<path class="st8" d="M980.7,381.5c0.2,0.2,0.3,0.5,0.4,0.8c3.3,3.8,5,7.4,1.9,7.5c-2.9,0.1-6.4,5.3-7.3,6.6c0,0.1,0.1,0.2,0.1,0.3
	s4.1-6.8,7.5-6.9S984.4,385.6,980.7,381.5L980.7,381.5z"/>
<path class="st17" d="M984.1,384.6c0,0.9-0.1,1.6-0.2,1.6s-0.2-0.7-0.2-1.6s0.1-0.5,0.2-0.5S984.1,383.7,984.1,384.6z"/>
<path class="st17" d="M985.3,385.6c-0.8,0.4-1.4,0.7-1.5,0.5s0.5-0.5,1.3-0.9s0.5-0.1,0.5,0S986.1,385.2,985.3,385.6z"/>
<path class="st4" d="M970.8,381.5c0,0-1.9,2.4,0.9,6.1s5,6.8,4.1,9.1c0,0-4.1-6.8-7.5-6.9S967.2,385.6,970.8,381.5L970.8,381.5z"/>
<path class="st8" d="M970.8,381.5c-0.2,0.2-0.3,0.5-0.4,0.8c-3.3,3.8-5,7.4-1.9,7.5c2.9,0.1,6.4,5.3,7.3,6.6c0,0.1-0.1,0.2-0.1,0.3
	s-4.1-6.8-7.5-6.9S967.2,385.6,970.8,381.5z"/>
<path class="st17" d="M967.4,384.6c0,0.9,0.1,1.6,0.2,1.6c0.2-0.5,0.3-1,0.2-1.6c0-0.9-0.1-0.5-0.2-0.5S967.4,383.7,967.4,384.6z"/>
<path class="st17" d="M966.2,385.6c0.8,0.4,1.4,0.7,1.5,0.5s-0.5-0.5-1.3-0.9s-0.5-0.1-0.5,0S965.4,385.2,966.2,385.6L966.2,385.6z"
	/>
<path class="st25" d="M967.9,396.3c0,0,5.2-0.2,6.8-1.3s8-2.5,8.4-0.7s7.8,8.9,2,9s-13.7-0.9-15.2-1.9S967.9,396.3,967.9,396.3z"/>
<path class="st26" d="M985.2,402.7c-5.9,0-13.7-0.9-15.2-1.9c-1.2-0.7-1.7-3.3-1.8-4.5h-0.2c0,0,0.3,4.2,1.9,5.2s9.3,1.9,15.2,1.9
	c1.7,0,2.3-0.6,2.3-1.5C987.1,402.4,986.5,402.7,985.2,402.7z"/>
</svg>
